<mxfile host="app.diagrams.net" agent="Mozilla/5.0 (Windows NT 10.0; Win64; x64) AppleWebKit/537.36 (KHTML, like Gecko) Chrome/135.0.0.0 Safari/537.36" version="26.2.13">
  <diagram name="Trang-1" id="ZwLT9Nred-pgWHnocmXn">
    <mxGraphModel dx="1305" dy="703" grid="1" gridSize="10" guides="1" tooltips="1" connect="1" arrows="1" fold="1" page="1" pageScale="1" pageWidth="827" pageHeight="1169" math="0" shadow="0">
      <root>
        <mxCell id="0" />
        <mxCell id="1" parent="0" />
        <mxCell id="Q5hPLZrYcaLwsk61dotQ-1534" value="" style="rounded=0;whiteSpace=wrap;html=1;" parent="1" vertex="1">
          <mxGeometry x="276" y="625" width="230" height="90" as="geometry" />
        </mxCell>
        <mxCell id="Q5hPLZrYcaLwsk61dotQ-1" value="" style="rounded=0;whiteSpace=wrap;html=1;" parent="1" vertex="1">
          <mxGeometry x="140" y="90" width="510" height="70" as="geometry" />
        </mxCell>
        <mxCell id="Q5hPLZrYcaLwsk61dotQ-5" value="" style="rounded=0;whiteSpace=wrap;html=1;" parent="1" vertex="1">
          <mxGeometry x="159" y="100" width="50" height="60" as="geometry" />
        </mxCell>
        <mxCell id="Q5hPLZrYcaLwsk61dotQ-6" value="" style="rounded=0;whiteSpace=wrap;html=1;" parent="1" vertex="1">
          <mxGeometry x="550" y="160" width="100" height="500" as="geometry" />
        </mxCell>
        <mxCell id="Q5hPLZrYcaLwsk61dotQ-8" value="" style="rounded=0;whiteSpace=wrap;html=1;" parent="1" vertex="1">
          <mxGeometry x="240" y="100" width="100" height="50" as="geometry" />
        </mxCell>
        <mxCell id="Q5hPLZrYcaLwsk61dotQ-15" value="" style="rounded=0;whiteSpace=wrap;html=1;" parent="1" vertex="1">
          <mxGeometry x="250" y="110" width="10" height="30" as="geometry" />
        </mxCell>
        <mxCell id="Q5hPLZrYcaLwsk61dotQ-16" value="" style="endArrow=none;html=1;rounded=0;exitX=0;exitY=0.25;exitDx=0;exitDy=0;entryX=1;entryY=0.25;entryDx=0;entryDy=0;" parent="1" source="Q5hPLZrYcaLwsk61dotQ-15" target="Q5hPLZrYcaLwsk61dotQ-15" edge="1">
          <mxGeometry width="50" height="50" relative="1" as="geometry">
            <mxPoint x="280" y="150" as="sourcePoint" />
            <mxPoint x="330" y="100" as="targetPoint" />
          </mxGeometry>
        </mxCell>
        <mxCell id="Q5hPLZrYcaLwsk61dotQ-17" value="" style="endArrow=none;html=1;rounded=0;exitX=0;exitY=0.25;exitDx=0;exitDy=0;entryX=1;entryY=0.25;entryDx=0;entryDy=0;" parent="1" edge="1">
          <mxGeometry width="50" height="50" relative="1" as="geometry">
            <mxPoint x="250" y="124.88" as="sourcePoint" />
            <mxPoint x="260" y="124.88" as="targetPoint" />
          </mxGeometry>
        </mxCell>
        <mxCell id="Q5hPLZrYcaLwsk61dotQ-18" value="" style="endArrow=none;html=1;rounded=0;exitX=0;exitY=0.25;exitDx=0;exitDy=0;entryX=1;entryY=0.25;entryDx=0;entryDy=0;" parent="1" edge="1">
          <mxGeometry width="50" height="50" relative="1" as="geometry">
            <mxPoint x="250" y="133" as="sourcePoint" />
            <mxPoint x="260" y="133" as="targetPoint" />
          </mxGeometry>
        </mxCell>
        <mxCell id="Q5hPLZrYcaLwsk61dotQ-20" value="" style="rounded=0;whiteSpace=wrap;html=1;" parent="1" vertex="1">
          <mxGeometry x="260" y="110" width="10" height="30" as="geometry" />
        </mxCell>
        <mxCell id="Q5hPLZrYcaLwsk61dotQ-21" value="" style="endArrow=none;html=1;rounded=0;exitX=0;exitY=0.25;exitDx=0;exitDy=0;entryX=1;entryY=0.25;entryDx=0;entryDy=0;" parent="1" source="Q5hPLZrYcaLwsk61dotQ-20" target="Q5hPLZrYcaLwsk61dotQ-20" edge="1">
          <mxGeometry width="50" height="50" relative="1" as="geometry">
            <mxPoint x="290" y="150" as="sourcePoint" />
            <mxPoint x="340" y="100" as="targetPoint" />
          </mxGeometry>
        </mxCell>
        <mxCell id="Q5hPLZrYcaLwsk61dotQ-22" value="" style="endArrow=none;html=1;rounded=0;exitX=0;exitY=0.25;exitDx=0;exitDy=0;entryX=1;entryY=0.25;entryDx=0;entryDy=0;" parent="1" edge="1">
          <mxGeometry width="50" height="50" relative="1" as="geometry">
            <mxPoint x="260" y="124.88" as="sourcePoint" />
            <mxPoint x="270" y="124.88" as="targetPoint" />
          </mxGeometry>
        </mxCell>
        <mxCell id="Q5hPLZrYcaLwsk61dotQ-23" value="" style="endArrow=none;html=1;rounded=0;exitX=0;exitY=0.25;exitDx=0;exitDy=0;entryX=1;entryY=0.25;entryDx=0;entryDy=0;" parent="1" edge="1">
          <mxGeometry width="50" height="50" relative="1" as="geometry">
            <mxPoint x="260" y="133" as="sourcePoint" />
            <mxPoint x="270" y="133" as="targetPoint" />
          </mxGeometry>
        </mxCell>
        <mxCell id="Q5hPLZrYcaLwsk61dotQ-24" value="" style="rounded=0;whiteSpace=wrap;html=1;" parent="1" vertex="1">
          <mxGeometry x="270" y="110" width="10" height="30" as="geometry" />
        </mxCell>
        <mxCell id="Q5hPLZrYcaLwsk61dotQ-25" value="" style="endArrow=none;html=1;rounded=0;exitX=0;exitY=0.25;exitDx=0;exitDy=0;entryX=1;entryY=0.25;entryDx=0;entryDy=0;" parent="1" source="Q5hPLZrYcaLwsk61dotQ-24" target="Q5hPLZrYcaLwsk61dotQ-24" edge="1">
          <mxGeometry width="50" height="50" relative="1" as="geometry">
            <mxPoint x="300" y="150" as="sourcePoint" />
            <mxPoint x="350" y="100" as="targetPoint" />
          </mxGeometry>
        </mxCell>
        <mxCell id="Q5hPLZrYcaLwsk61dotQ-26" value="" style="endArrow=none;html=1;rounded=0;exitX=0;exitY=0.25;exitDx=0;exitDy=0;entryX=1;entryY=0.25;entryDx=0;entryDy=0;" parent="1" edge="1">
          <mxGeometry width="50" height="50" relative="1" as="geometry">
            <mxPoint x="270" y="124.88" as="sourcePoint" />
            <mxPoint x="280" y="124.88" as="targetPoint" />
          </mxGeometry>
        </mxCell>
        <mxCell id="Q5hPLZrYcaLwsk61dotQ-27" value="" style="endArrow=none;html=1;rounded=0;exitX=0;exitY=0.25;exitDx=0;exitDy=0;entryX=1;entryY=0.25;entryDx=0;entryDy=0;" parent="1" edge="1">
          <mxGeometry width="50" height="50" relative="1" as="geometry">
            <mxPoint x="270" y="133" as="sourcePoint" />
            <mxPoint x="280" y="133" as="targetPoint" />
          </mxGeometry>
        </mxCell>
        <mxCell id="Q5hPLZrYcaLwsk61dotQ-28" value="" style="rounded=0;whiteSpace=wrap;html=1;" parent="1" vertex="1">
          <mxGeometry x="280" y="110" width="10" height="30" as="geometry" />
        </mxCell>
        <mxCell id="Q5hPLZrYcaLwsk61dotQ-29" value="" style="endArrow=none;html=1;rounded=0;exitX=0;exitY=0.25;exitDx=0;exitDy=0;entryX=1;entryY=0.25;entryDx=0;entryDy=0;" parent="1" source="Q5hPLZrYcaLwsk61dotQ-28" target="Q5hPLZrYcaLwsk61dotQ-28" edge="1">
          <mxGeometry width="50" height="50" relative="1" as="geometry">
            <mxPoint x="310" y="150" as="sourcePoint" />
            <mxPoint x="360" y="100" as="targetPoint" />
          </mxGeometry>
        </mxCell>
        <mxCell id="Q5hPLZrYcaLwsk61dotQ-30" value="" style="endArrow=none;html=1;rounded=0;exitX=0;exitY=0.25;exitDx=0;exitDy=0;entryX=1;entryY=0.25;entryDx=0;entryDy=0;" parent="1" edge="1">
          <mxGeometry width="50" height="50" relative="1" as="geometry">
            <mxPoint x="280" y="124.88" as="sourcePoint" />
            <mxPoint x="290" y="124.88" as="targetPoint" />
          </mxGeometry>
        </mxCell>
        <mxCell id="Q5hPLZrYcaLwsk61dotQ-31" value="" style="endArrow=none;html=1;rounded=0;exitX=0;exitY=0.25;exitDx=0;exitDy=0;entryX=1;entryY=0.25;entryDx=0;entryDy=0;" parent="1" edge="1">
          <mxGeometry width="50" height="50" relative="1" as="geometry">
            <mxPoint x="280" y="133" as="sourcePoint" />
            <mxPoint x="290" y="133" as="targetPoint" />
          </mxGeometry>
        </mxCell>
        <mxCell id="Q5hPLZrYcaLwsk61dotQ-36" value="" style="rounded=0;whiteSpace=wrap;html=1;" parent="1" vertex="1">
          <mxGeometry x="290" y="110" width="10" height="30" as="geometry" />
        </mxCell>
        <mxCell id="Q5hPLZrYcaLwsk61dotQ-37" value="" style="endArrow=none;html=1;rounded=0;exitX=0;exitY=0.25;exitDx=0;exitDy=0;entryX=1;entryY=0.25;entryDx=0;entryDy=0;" parent="1" source="Q5hPLZrYcaLwsk61dotQ-36" target="Q5hPLZrYcaLwsk61dotQ-36" edge="1">
          <mxGeometry width="50" height="50" relative="1" as="geometry">
            <mxPoint x="320" y="150" as="sourcePoint" />
            <mxPoint x="370" y="100" as="targetPoint" />
          </mxGeometry>
        </mxCell>
        <mxCell id="Q5hPLZrYcaLwsk61dotQ-38" value="" style="endArrow=none;html=1;rounded=0;exitX=0;exitY=0.25;exitDx=0;exitDy=0;entryX=1;entryY=0.25;entryDx=0;entryDy=0;" parent="1" edge="1">
          <mxGeometry width="50" height="50" relative="1" as="geometry">
            <mxPoint x="290" y="124.88" as="sourcePoint" />
            <mxPoint x="300" y="124.88" as="targetPoint" />
          </mxGeometry>
        </mxCell>
        <mxCell id="Q5hPLZrYcaLwsk61dotQ-39" value="" style="endArrow=none;html=1;rounded=0;exitX=0;exitY=0.25;exitDx=0;exitDy=0;entryX=1;entryY=0.25;entryDx=0;entryDy=0;" parent="1" edge="1">
          <mxGeometry width="50" height="50" relative="1" as="geometry">
            <mxPoint x="290" y="133" as="sourcePoint" />
            <mxPoint x="300" y="133" as="targetPoint" />
          </mxGeometry>
        </mxCell>
        <mxCell id="Q5hPLZrYcaLwsk61dotQ-40" value="" style="rounded=0;whiteSpace=wrap;html=1;" parent="1" vertex="1">
          <mxGeometry x="300" y="110" width="10" height="30" as="geometry" />
        </mxCell>
        <mxCell id="Q5hPLZrYcaLwsk61dotQ-41" value="" style="endArrow=none;html=1;rounded=0;exitX=0;exitY=0.25;exitDx=0;exitDy=0;entryX=1;entryY=0.25;entryDx=0;entryDy=0;" parent="1" source="Q5hPLZrYcaLwsk61dotQ-40" target="Q5hPLZrYcaLwsk61dotQ-40" edge="1">
          <mxGeometry width="50" height="50" relative="1" as="geometry">
            <mxPoint x="330" y="150" as="sourcePoint" />
            <mxPoint x="380" y="100" as="targetPoint" />
          </mxGeometry>
        </mxCell>
        <mxCell id="Q5hPLZrYcaLwsk61dotQ-42" value="" style="endArrow=none;html=1;rounded=0;exitX=0;exitY=0.25;exitDx=0;exitDy=0;entryX=1;entryY=0.25;entryDx=0;entryDy=0;" parent="1" edge="1">
          <mxGeometry width="50" height="50" relative="1" as="geometry">
            <mxPoint x="300" y="124.88" as="sourcePoint" />
            <mxPoint x="310" y="124.88" as="targetPoint" />
          </mxGeometry>
        </mxCell>
        <mxCell id="Q5hPLZrYcaLwsk61dotQ-43" value="" style="endArrow=none;html=1;rounded=0;exitX=0;exitY=0.25;exitDx=0;exitDy=0;entryX=1;entryY=0.25;entryDx=0;entryDy=0;" parent="1" edge="1">
          <mxGeometry width="50" height="50" relative="1" as="geometry">
            <mxPoint x="300" y="133" as="sourcePoint" />
            <mxPoint x="310" y="133" as="targetPoint" />
          </mxGeometry>
        </mxCell>
        <mxCell id="Q5hPLZrYcaLwsk61dotQ-44" value="" style="rounded=0;whiteSpace=wrap;html=1;" parent="1" vertex="1">
          <mxGeometry x="310" y="110" width="10" height="30" as="geometry" />
        </mxCell>
        <mxCell id="Q5hPLZrYcaLwsk61dotQ-45" value="" style="endArrow=none;html=1;rounded=0;exitX=0;exitY=0.25;exitDx=0;exitDy=0;entryX=1;entryY=0.25;entryDx=0;entryDy=0;" parent="1" source="Q5hPLZrYcaLwsk61dotQ-44" target="Q5hPLZrYcaLwsk61dotQ-44" edge="1">
          <mxGeometry width="50" height="50" relative="1" as="geometry">
            <mxPoint x="340" y="150" as="sourcePoint" />
            <mxPoint x="390" y="100" as="targetPoint" />
          </mxGeometry>
        </mxCell>
        <mxCell id="Q5hPLZrYcaLwsk61dotQ-46" value="" style="endArrow=none;html=1;rounded=0;exitX=0;exitY=0.25;exitDx=0;exitDy=0;entryX=1;entryY=0.25;entryDx=0;entryDy=0;" parent="1" edge="1">
          <mxGeometry width="50" height="50" relative="1" as="geometry">
            <mxPoint x="310" y="124.88" as="sourcePoint" />
            <mxPoint x="320" y="124.88" as="targetPoint" />
          </mxGeometry>
        </mxCell>
        <mxCell id="Q5hPLZrYcaLwsk61dotQ-47" value="" style="endArrow=none;html=1;rounded=0;exitX=0;exitY=0.25;exitDx=0;exitDy=0;entryX=1;entryY=0.25;entryDx=0;entryDy=0;" parent="1" edge="1">
          <mxGeometry width="50" height="50" relative="1" as="geometry">
            <mxPoint x="310" y="133" as="sourcePoint" />
            <mxPoint x="320" y="133" as="targetPoint" />
          </mxGeometry>
        </mxCell>
        <mxCell id="Q5hPLZrYcaLwsk61dotQ-48" value="" style="rounded=0;whiteSpace=wrap;html=1;" parent="1" vertex="1">
          <mxGeometry x="320" y="110" width="10" height="30" as="geometry" />
        </mxCell>
        <mxCell id="Q5hPLZrYcaLwsk61dotQ-49" value="" style="endArrow=none;html=1;rounded=0;exitX=0;exitY=0.25;exitDx=0;exitDy=0;entryX=1;entryY=0.25;entryDx=0;entryDy=0;" parent="1" source="Q5hPLZrYcaLwsk61dotQ-48" target="Q5hPLZrYcaLwsk61dotQ-48" edge="1">
          <mxGeometry width="50" height="50" relative="1" as="geometry">
            <mxPoint x="350" y="150" as="sourcePoint" />
            <mxPoint x="400" y="100" as="targetPoint" />
          </mxGeometry>
        </mxCell>
        <mxCell id="Q5hPLZrYcaLwsk61dotQ-50" value="" style="endArrow=none;html=1;rounded=0;exitX=0;exitY=0.25;exitDx=0;exitDy=0;entryX=1;entryY=0.25;entryDx=0;entryDy=0;" parent="1" edge="1">
          <mxGeometry width="50" height="50" relative="1" as="geometry">
            <mxPoint x="320" y="124.88" as="sourcePoint" />
            <mxPoint x="330" y="124.88" as="targetPoint" />
          </mxGeometry>
        </mxCell>
        <mxCell id="Q5hPLZrYcaLwsk61dotQ-51" value="" style="endArrow=none;html=1;rounded=0;exitX=0;exitY=0.25;exitDx=0;exitDy=0;entryX=1;entryY=0.25;entryDx=0;entryDy=0;" parent="1" edge="1">
          <mxGeometry width="50" height="50" relative="1" as="geometry">
            <mxPoint x="320" y="133" as="sourcePoint" />
            <mxPoint x="330" y="133" as="targetPoint" />
          </mxGeometry>
        </mxCell>
        <mxCell id="Q5hPLZrYcaLwsk61dotQ-468" value="" style="rounded=0;whiteSpace=wrap;html=1;" parent="1" vertex="1">
          <mxGeometry x="340" y="100" width="100" height="50" as="geometry" />
        </mxCell>
        <mxCell id="Q5hPLZrYcaLwsk61dotQ-475" value="" style="rounded=0;whiteSpace=wrap;html=1;" parent="1" vertex="1">
          <mxGeometry x="350" y="110" width="10" height="30" as="geometry" />
        </mxCell>
        <mxCell id="Q5hPLZrYcaLwsk61dotQ-476" value="" style="endArrow=none;html=1;rounded=0;exitX=0;exitY=0.25;exitDx=0;exitDy=0;entryX=1;entryY=0.25;entryDx=0;entryDy=0;" parent="1" source="Q5hPLZrYcaLwsk61dotQ-475" target="Q5hPLZrYcaLwsk61dotQ-475" edge="1">
          <mxGeometry width="50" height="50" relative="1" as="geometry">
            <mxPoint x="380" y="150" as="sourcePoint" />
            <mxPoint x="430" y="100" as="targetPoint" />
          </mxGeometry>
        </mxCell>
        <mxCell id="Q5hPLZrYcaLwsk61dotQ-477" value="" style="endArrow=none;html=1;rounded=0;exitX=0;exitY=0.25;exitDx=0;exitDy=0;entryX=1;entryY=0.25;entryDx=0;entryDy=0;" parent="1" edge="1">
          <mxGeometry width="50" height="50" relative="1" as="geometry">
            <mxPoint x="350" y="124.88" as="sourcePoint" />
            <mxPoint x="360" y="124.88" as="targetPoint" />
          </mxGeometry>
        </mxCell>
        <mxCell id="Q5hPLZrYcaLwsk61dotQ-478" value="" style="endArrow=none;html=1;rounded=0;exitX=0;exitY=0.25;exitDx=0;exitDy=0;entryX=1;entryY=0.25;entryDx=0;entryDy=0;" parent="1" edge="1">
          <mxGeometry width="50" height="50" relative="1" as="geometry">
            <mxPoint x="350" y="133" as="sourcePoint" />
            <mxPoint x="360" y="133" as="targetPoint" />
          </mxGeometry>
        </mxCell>
        <mxCell id="Q5hPLZrYcaLwsk61dotQ-479" value="" style="rounded=0;whiteSpace=wrap;html=1;" parent="1" vertex="1">
          <mxGeometry x="360" y="110" width="10" height="30" as="geometry" />
        </mxCell>
        <mxCell id="Q5hPLZrYcaLwsk61dotQ-480" value="" style="endArrow=none;html=1;rounded=0;exitX=0;exitY=0.25;exitDx=0;exitDy=0;entryX=1;entryY=0.25;entryDx=0;entryDy=0;" parent="1" source="Q5hPLZrYcaLwsk61dotQ-479" target="Q5hPLZrYcaLwsk61dotQ-479" edge="1">
          <mxGeometry width="50" height="50" relative="1" as="geometry">
            <mxPoint x="390" y="150" as="sourcePoint" />
            <mxPoint x="440" y="100" as="targetPoint" />
          </mxGeometry>
        </mxCell>
        <mxCell id="Q5hPLZrYcaLwsk61dotQ-481" value="" style="endArrow=none;html=1;rounded=0;exitX=0;exitY=0.25;exitDx=0;exitDy=0;entryX=1;entryY=0.25;entryDx=0;entryDy=0;" parent="1" edge="1">
          <mxGeometry width="50" height="50" relative="1" as="geometry">
            <mxPoint x="360" y="124.88" as="sourcePoint" />
            <mxPoint x="370" y="124.88" as="targetPoint" />
          </mxGeometry>
        </mxCell>
        <mxCell id="Q5hPLZrYcaLwsk61dotQ-482" value="" style="endArrow=none;html=1;rounded=0;exitX=0;exitY=0.25;exitDx=0;exitDy=0;entryX=1;entryY=0.25;entryDx=0;entryDy=0;" parent="1" edge="1">
          <mxGeometry width="50" height="50" relative="1" as="geometry">
            <mxPoint x="360" y="133" as="sourcePoint" />
            <mxPoint x="370" y="133" as="targetPoint" />
          </mxGeometry>
        </mxCell>
        <mxCell id="Q5hPLZrYcaLwsk61dotQ-483" value="" style="rounded=0;whiteSpace=wrap;html=1;" parent="1" vertex="1">
          <mxGeometry x="370" y="110" width="10" height="30" as="geometry" />
        </mxCell>
        <mxCell id="Q5hPLZrYcaLwsk61dotQ-484" value="" style="endArrow=none;html=1;rounded=0;exitX=0;exitY=0.25;exitDx=0;exitDy=0;entryX=1;entryY=0.25;entryDx=0;entryDy=0;" parent="1" source="Q5hPLZrYcaLwsk61dotQ-483" target="Q5hPLZrYcaLwsk61dotQ-483" edge="1">
          <mxGeometry width="50" height="50" relative="1" as="geometry">
            <mxPoint x="400" y="150" as="sourcePoint" />
            <mxPoint x="450" y="100" as="targetPoint" />
          </mxGeometry>
        </mxCell>
        <mxCell id="Q5hPLZrYcaLwsk61dotQ-485" value="" style="endArrow=none;html=1;rounded=0;exitX=0;exitY=0.25;exitDx=0;exitDy=0;entryX=1;entryY=0.25;entryDx=0;entryDy=0;" parent="1" edge="1">
          <mxGeometry width="50" height="50" relative="1" as="geometry">
            <mxPoint x="370" y="124.88" as="sourcePoint" />
            <mxPoint x="380" y="124.88" as="targetPoint" />
          </mxGeometry>
        </mxCell>
        <mxCell id="Q5hPLZrYcaLwsk61dotQ-486" value="" style="endArrow=none;html=1;rounded=0;exitX=0;exitY=0.25;exitDx=0;exitDy=0;entryX=1;entryY=0.25;entryDx=0;entryDy=0;" parent="1" edge="1">
          <mxGeometry width="50" height="50" relative="1" as="geometry">
            <mxPoint x="370" y="133" as="sourcePoint" />
            <mxPoint x="380" y="133" as="targetPoint" />
          </mxGeometry>
        </mxCell>
        <mxCell id="Q5hPLZrYcaLwsk61dotQ-487" value="" style="rounded=0;whiteSpace=wrap;html=1;" parent="1" vertex="1">
          <mxGeometry x="380" y="110" width="10" height="30" as="geometry" />
        </mxCell>
        <mxCell id="Q5hPLZrYcaLwsk61dotQ-488" value="" style="endArrow=none;html=1;rounded=0;exitX=0;exitY=0.25;exitDx=0;exitDy=0;entryX=1;entryY=0.25;entryDx=0;entryDy=0;" parent="1" source="Q5hPLZrYcaLwsk61dotQ-487" target="Q5hPLZrYcaLwsk61dotQ-487" edge="1">
          <mxGeometry width="50" height="50" relative="1" as="geometry">
            <mxPoint x="410" y="150" as="sourcePoint" />
            <mxPoint x="460" y="100" as="targetPoint" />
          </mxGeometry>
        </mxCell>
        <mxCell id="Q5hPLZrYcaLwsk61dotQ-489" value="" style="endArrow=none;html=1;rounded=0;exitX=0;exitY=0.25;exitDx=0;exitDy=0;entryX=1;entryY=0.25;entryDx=0;entryDy=0;" parent="1" edge="1">
          <mxGeometry width="50" height="50" relative="1" as="geometry">
            <mxPoint x="380" y="124.88" as="sourcePoint" />
            <mxPoint x="390" y="124.88" as="targetPoint" />
          </mxGeometry>
        </mxCell>
        <mxCell id="Q5hPLZrYcaLwsk61dotQ-490" value="" style="endArrow=none;html=1;rounded=0;exitX=0;exitY=0.25;exitDx=0;exitDy=0;entryX=1;entryY=0.25;entryDx=0;entryDy=0;" parent="1" edge="1">
          <mxGeometry width="50" height="50" relative="1" as="geometry">
            <mxPoint x="380" y="133" as="sourcePoint" />
            <mxPoint x="390" y="133" as="targetPoint" />
          </mxGeometry>
        </mxCell>
        <mxCell id="Q5hPLZrYcaLwsk61dotQ-491" value="" style="rounded=0;whiteSpace=wrap;html=1;" parent="1" vertex="1">
          <mxGeometry x="390" y="110" width="10" height="30" as="geometry" />
        </mxCell>
        <mxCell id="Q5hPLZrYcaLwsk61dotQ-492" value="" style="endArrow=none;html=1;rounded=0;exitX=0;exitY=0.25;exitDx=0;exitDy=0;entryX=1;entryY=0.25;entryDx=0;entryDy=0;" parent="1" source="Q5hPLZrYcaLwsk61dotQ-491" target="Q5hPLZrYcaLwsk61dotQ-491" edge="1">
          <mxGeometry width="50" height="50" relative="1" as="geometry">
            <mxPoint x="420" y="150" as="sourcePoint" />
            <mxPoint x="470" y="100" as="targetPoint" />
          </mxGeometry>
        </mxCell>
        <mxCell id="Q5hPLZrYcaLwsk61dotQ-493" value="" style="endArrow=none;html=1;rounded=0;exitX=0;exitY=0.25;exitDx=0;exitDy=0;entryX=1;entryY=0.25;entryDx=0;entryDy=0;" parent="1" edge="1">
          <mxGeometry width="50" height="50" relative="1" as="geometry">
            <mxPoint x="390" y="124.88" as="sourcePoint" />
            <mxPoint x="400" y="124.88" as="targetPoint" />
          </mxGeometry>
        </mxCell>
        <mxCell id="Q5hPLZrYcaLwsk61dotQ-494" value="" style="endArrow=none;html=1;rounded=0;exitX=0;exitY=0.25;exitDx=0;exitDy=0;entryX=1;entryY=0.25;entryDx=0;entryDy=0;" parent="1" edge="1">
          <mxGeometry width="50" height="50" relative="1" as="geometry">
            <mxPoint x="390" y="133" as="sourcePoint" />
            <mxPoint x="400" y="133" as="targetPoint" />
          </mxGeometry>
        </mxCell>
        <mxCell id="Q5hPLZrYcaLwsk61dotQ-495" value="" style="rounded=0;whiteSpace=wrap;html=1;" parent="1" vertex="1">
          <mxGeometry x="400" y="110" width="10" height="30" as="geometry" />
        </mxCell>
        <mxCell id="Q5hPLZrYcaLwsk61dotQ-496" value="" style="endArrow=none;html=1;rounded=0;exitX=0;exitY=0.25;exitDx=0;exitDy=0;entryX=1;entryY=0.25;entryDx=0;entryDy=0;" parent="1" source="Q5hPLZrYcaLwsk61dotQ-495" target="Q5hPLZrYcaLwsk61dotQ-495" edge="1">
          <mxGeometry width="50" height="50" relative="1" as="geometry">
            <mxPoint x="430" y="150" as="sourcePoint" />
            <mxPoint x="480" y="100" as="targetPoint" />
          </mxGeometry>
        </mxCell>
        <mxCell id="Q5hPLZrYcaLwsk61dotQ-497" value="" style="endArrow=none;html=1;rounded=0;exitX=0;exitY=0.25;exitDx=0;exitDy=0;entryX=1;entryY=0.25;entryDx=0;entryDy=0;" parent="1" edge="1">
          <mxGeometry width="50" height="50" relative="1" as="geometry">
            <mxPoint x="400" y="124.88" as="sourcePoint" />
            <mxPoint x="410" y="124.88" as="targetPoint" />
          </mxGeometry>
        </mxCell>
        <mxCell id="Q5hPLZrYcaLwsk61dotQ-498" value="" style="endArrow=none;html=1;rounded=0;exitX=0;exitY=0.25;exitDx=0;exitDy=0;entryX=1;entryY=0.25;entryDx=0;entryDy=0;" parent="1" edge="1">
          <mxGeometry width="50" height="50" relative="1" as="geometry">
            <mxPoint x="400" y="133" as="sourcePoint" />
            <mxPoint x="410" y="133" as="targetPoint" />
          </mxGeometry>
        </mxCell>
        <mxCell id="Q5hPLZrYcaLwsk61dotQ-499" value="" style="rounded=0;whiteSpace=wrap;html=1;" parent="1" vertex="1">
          <mxGeometry x="410" y="110" width="10" height="30" as="geometry" />
        </mxCell>
        <mxCell id="Q5hPLZrYcaLwsk61dotQ-500" value="" style="endArrow=none;html=1;rounded=0;exitX=0;exitY=0.25;exitDx=0;exitDy=0;entryX=1;entryY=0.25;entryDx=0;entryDy=0;" parent="1" source="Q5hPLZrYcaLwsk61dotQ-499" target="Q5hPLZrYcaLwsk61dotQ-499" edge="1">
          <mxGeometry width="50" height="50" relative="1" as="geometry">
            <mxPoint x="440" y="150" as="sourcePoint" />
            <mxPoint x="490" y="100" as="targetPoint" />
          </mxGeometry>
        </mxCell>
        <mxCell id="Q5hPLZrYcaLwsk61dotQ-501" value="" style="endArrow=none;html=1;rounded=0;exitX=0;exitY=0.25;exitDx=0;exitDy=0;entryX=1;entryY=0.25;entryDx=0;entryDy=0;" parent="1" edge="1">
          <mxGeometry width="50" height="50" relative="1" as="geometry">
            <mxPoint x="410" y="124.88" as="sourcePoint" />
            <mxPoint x="420" y="124.88" as="targetPoint" />
          </mxGeometry>
        </mxCell>
        <mxCell id="Q5hPLZrYcaLwsk61dotQ-502" value="" style="endArrow=none;html=1;rounded=0;exitX=0;exitY=0.25;exitDx=0;exitDy=0;entryX=1;entryY=0.25;entryDx=0;entryDy=0;" parent="1" edge="1">
          <mxGeometry width="50" height="50" relative="1" as="geometry">
            <mxPoint x="410" y="133" as="sourcePoint" />
            <mxPoint x="420" y="133" as="targetPoint" />
          </mxGeometry>
        </mxCell>
        <mxCell id="Q5hPLZrYcaLwsk61dotQ-503" value="" style="rounded=0;whiteSpace=wrap;html=1;" parent="1" vertex="1">
          <mxGeometry x="420" y="110" width="10" height="30" as="geometry" />
        </mxCell>
        <mxCell id="Q5hPLZrYcaLwsk61dotQ-504" value="" style="endArrow=none;html=1;rounded=0;exitX=0;exitY=0.25;exitDx=0;exitDy=0;entryX=1;entryY=0.25;entryDx=0;entryDy=0;" parent="1" source="Q5hPLZrYcaLwsk61dotQ-503" target="Q5hPLZrYcaLwsk61dotQ-503" edge="1">
          <mxGeometry width="50" height="50" relative="1" as="geometry">
            <mxPoint x="450" y="150" as="sourcePoint" />
            <mxPoint x="500" y="100" as="targetPoint" />
          </mxGeometry>
        </mxCell>
        <mxCell id="Q5hPLZrYcaLwsk61dotQ-505" value="" style="endArrow=none;html=1;rounded=0;exitX=0;exitY=0.25;exitDx=0;exitDy=0;entryX=1;entryY=0.25;entryDx=0;entryDy=0;" parent="1" edge="1">
          <mxGeometry width="50" height="50" relative="1" as="geometry">
            <mxPoint x="420" y="124.88" as="sourcePoint" />
            <mxPoint x="430" y="124.88" as="targetPoint" />
          </mxGeometry>
        </mxCell>
        <mxCell id="Q5hPLZrYcaLwsk61dotQ-506" value="" style="endArrow=none;html=1;rounded=0;exitX=0;exitY=0.25;exitDx=0;exitDy=0;entryX=1;entryY=0.25;entryDx=0;entryDy=0;" parent="1" edge="1">
          <mxGeometry width="50" height="50" relative="1" as="geometry">
            <mxPoint x="420" y="133" as="sourcePoint" />
            <mxPoint x="430" y="133" as="targetPoint" />
          </mxGeometry>
        </mxCell>
        <mxCell id="Q5hPLZrYcaLwsk61dotQ-699" value="" style="rounded=0;whiteSpace=wrap;html=1;" parent="1" vertex="1">
          <mxGeometry x="440" y="100" width="100" height="50" as="geometry" />
        </mxCell>
        <mxCell id="Q5hPLZrYcaLwsk61dotQ-706" value="" style="rounded=0;whiteSpace=wrap;html=1;" parent="1" vertex="1">
          <mxGeometry x="450" y="110" width="10" height="30" as="geometry" />
        </mxCell>
        <mxCell id="Q5hPLZrYcaLwsk61dotQ-707" value="" style="endArrow=none;html=1;rounded=0;exitX=0;exitY=0.25;exitDx=0;exitDy=0;entryX=1;entryY=0.25;entryDx=0;entryDy=0;" parent="1" source="Q5hPLZrYcaLwsk61dotQ-706" target="Q5hPLZrYcaLwsk61dotQ-706" edge="1">
          <mxGeometry width="50" height="50" relative="1" as="geometry">
            <mxPoint x="480" y="150" as="sourcePoint" />
            <mxPoint x="530" y="100" as="targetPoint" />
          </mxGeometry>
        </mxCell>
        <mxCell id="Q5hPLZrYcaLwsk61dotQ-708" value="" style="endArrow=none;html=1;rounded=0;exitX=0;exitY=0.25;exitDx=0;exitDy=0;entryX=1;entryY=0.25;entryDx=0;entryDy=0;" parent="1" edge="1">
          <mxGeometry width="50" height="50" relative="1" as="geometry">
            <mxPoint x="450" y="124.88" as="sourcePoint" />
            <mxPoint x="460" y="124.88" as="targetPoint" />
          </mxGeometry>
        </mxCell>
        <mxCell id="Q5hPLZrYcaLwsk61dotQ-709" value="" style="endArrow=none;html=1;rounded=0;exitX=0;exitY=0.25;exitDx=0;exitDy=0;entryX=1;entryY=0.25;entryDx=0;entryDy=0;" parent="1" edge="1">
          <mxGeometry width="50" height="50" relative="1" as="geometry">
            <mxPoint x="450" y="133" as="sourcePoint" />
            <mxPoint x="460" y="133" as="targetPoint" />
          </mxGeometry>
        </mxCell>
        <mxCell id="Q5hPLZrYcaLwsk61dotQ-710" value="" style="rounded=0;whiteSpace=wrap;html=1;" parent="1" vertex="1">
          <mxGeometry x="460" y="110" width="10" height="30" as="geometry" />
        </mxCell>
        <mxCell id="Q5hPLZrYcaLwsk61dotQ-711" value="" style="endArrow=none;html=1;rounded=0;exitX=0;exitY=0.25;exitDx=0;exitDy=0;entryX=1;entryY=0.25;entryDx=0;entryDy=0;" parent="1" source="Q5hPLZrYcaLwsk61dotQ-710" target="Q5hPLZrYcaLwsk61dotQ-710" edge="1">
          <mxGeometry width="50" height="50" relative="1" as="geometry">
            <mxPoint x="490" y="150" as="sourcePoint" />
            <mxPoint x="540" y="100" as="targetPoint" />
          </mxGeometry>
        </mxCell>
        <mxCell id="Q5hPLZrYcaLwsk61dotQ-712" value="" style="endArrow=none;html=1;rounded=0;exitX=0;exitY=0.25;exitDx=0;exitDy=0;entryX=1;entryY=0.25;entryDx=0;entryDy=0;" parent="1" edge="1">
          <mxGeometry width="50" height="50" relative="1" as="geometry">
            <mxPoint x="460" y="124.88" as="sourcePoint" />
            <mxPoint x="470" y="124.88" as="targetPoint" />
          </mxGeometry>
        </mxCell>
        <mxCell id="Q5hPLZrYcaLwsk61dotQ-713" value="" style="endArrow=none;html=1;rounded=0;exitX=0;exitY=0.25;exitDx=0;exitDy=0;entryX=1;entryY=0.25;entryDx=0;entryDy=0;" parent="1" edge="1">
          <mxGeometry width="50" height="50" relative="1" as="geometry">
            <mxPoint x="460" y="133" as="sourcePoint" />
            <mxPoint x="470" y="133" as="targetPoint" />
          </mxGeometry>
        </mxCell>
        <mxCell id="Q5hPLZrYcaLwsk61dotQ-714" value="" style="rounded=0;whiteSpace=wrap;html=1;" parent="1" vertex="1">
          <mxGeometry x="470" y="110" width="10" height="30" as="geometry" />
        </mxCell>
        <mxCell id="Q5hPLZrYcaLwsk61dotQ-715" value="" style="endArrow=none;html=1;rounded=0;exitX=0;exitY=0.25;exitDx=0;exitDy=0;entryX=1;entryY=0.25;entryDx=0;entryDy=0;" parent="1" source="Q5hPLZrYcaLwsk61dotQ-714" target="Q5hPLZrYcaLwsk61dotQ-714" edge="1">
          <mxGeometry width="50" height="50" relative="1" as="geometry">
            <mxPoint x="500" y="150" as="sourcePoint" />
            <mxPoint x="550" y="100" as="targetPoint" />
          </mxGeometry>
        </mxCell>
        <mxCell id="Q5hPLZrYcaLwsk61dotQ-716" value="" style="endArrow=none;html=1;rounded=0;exitX=0;exitY=0.25;exitDx=0;exitDy=0;entryX=1;entryY=0.25;entryDx=0;entryDy=0;" parent="1" edge="1">
          <mxGeometry width="50" height="50" relative="1" as="geometry">
            <mxPoint x="470" y="124.88" as="sourcePoint" />
            <mxPoint x="480" y="124.88" as="targetPoint" />
          </mxGeometry>
        </mxCell>
        <mxCell id="Q5hPLZrYcaLwsk61dotQ-717" value="" style="endArrow=none;html=1;rounded=0;exitX=0;exitY=0.25;exitDx=0;exitDy=0;entryX=1;entryY=0.25;entryDx=0;entryDy=0;" parent="1" edge="1">
          <mxGeometry width="50" height="50" relative="1" as="geometry">
            <mxPoint x="470" y="133" as="sourcePoint" />
            <mxPoint x="480" y="133" as="targetPoint" />
          </mxGeometry>
        </mxCell>
        <mxCell id="Q5hPLZrYcaLwsk61dotQ-718" value="" style="rounded=0;whiteSpace=wrap;html=1;" parent="1" vertex="1">
          <mxGeometry x="480" y="110" width="10" height="30" as="geometry" />
        </mxCell>
        <mxCell id="Q5hPLZrYcaLwsk61dotQ-719" value="" style="endArrow=none;html=1;rounded=0;exitX=0;exitY=0.25;exitDx=0;exitDy=0;entryX=1;entryY=0.25;entryDx=0;entryDy=0;" parent="1" source="Q5hPLZrYcaLwsk61dotQ-718" target="Q5hPLZrYcaLwsk61dotQ-718" edge="1">
          <mxGeometry width="50" height="50" relative="1" as="geometry">
            <mxPoint x="510" y="150" as="sourcePoint" />
            <mxPoint x="560" y="100" as="targetPoint" />
          </mxGeometry>
        </mxCell>
        <mxCell id="Q5hPLZrYcaLwsk61dotQ-720" value="" style="endArrow=none;html=1;rounded=0;exitX=0;exitY=0.25;exitDx=0;exitDy=0;entryX=1;entryY=0.25;entryDx=0;entryDy=0;" parent="1" edge="1">
          <mxGeometry width="50" height="50" relative="1" as="geometry">
            <mxPoint x="480" y="124.88" as="sourcePoint" />
            <mxPoint x="490" y="124.88" as="targetPoint" />
          </mxGeometry>
        </mxCell>
        <mxCell id="Q5hPLZrYcaLwsk61dotQ-721" value="" style="endArrow=none;html=1;rounded=0;exitX=0;exitY=0.25;exitDx=0;exitDy=0;entryX=1;entryY=0.25;entryDx=0;entryDy=0;" parent="1" edge="1">
          <mxGeometry width="50" height="50" relative="1" as="geometry">
            <mxPoint x="480" y="133" as="sourcePoint" />
            <mxPoint x="490" y="133" as="targetPoint" />
          </mxGeometry>
        </mxCell>
        <mxCell id="Q5hPLZrYcaLwsk61dotQ-722" value="" style="rounded=0;whiteSpace=wrap;html=1;" parent="1" vertex="1">
          <mxGeometry x="490" y="110" width="10" height="30" as="geometry" />
        </mxCell>
        <mxCell id="Q5hPLZrYcaLwsk61dotQ-723" value="" style="endArrow=none;html=1;rounded=0;exitX=0;exitY=0.25;exitDx=0;exitDy=0;entryX=1;entryY=0.25;entryDx=0;entryDy=0;" parent="1" source="Q5hPLZrYcaLwsk61dotQ-722" target="Q5hPLZrYcaLwsk61dotQ-722" edge="1">
          <mxGeometry width="50" height="50" relative="1" as="geometry">
            <mxPoint x="520" y="150" as="sourcePoint" />
            <mxPoint x="570" y="100" as="targetPoint" />
          </mxGeometry>
        </mxCell>
        <mxCell id="Q5hPLZrYcaLwsk61dotQ-724" value="" style="endArrow=none;html=1;rounded=0;exitX=0;exitY=0.25;exitDx=0;exitDy=0;entryX=1;entryY=0.25;entryDx=0;entryDy=0;" parent="1" edge="1">
          <mxGeometry width="50" height="50" relative="1" as="geometry">
            <mxPoint x="490" y="124.88" as="sourcePoint" />
            <mxPoint x="500" y="124.88" as="targetPoint" />
          </mxGeometry>
        </mxCell>
        <mxCell id="Q5hPLZrYcaLwsk61dotQ-725" value="" style="endArrow=none;html=1;rounded=0;exitX=0;exitY=0.25;exitDx=0;exitDy=0;entryX=1;entryY=0.25;entryDx=0;entryDy=0;" parent="1" edge="1">
          <mxGeometry width="50" height="50" relative="1" as="geometry">
            <mxPoint x="490" y="133" as="sourcePoint" />
            <mxPoint x="500" y="133" as="targetPoint" />
          </mxGeometry>
        </mxCell>
        <mxCell id="Q5hPLZrYcaLwsk61dotQ-726" value="" style="rounded=0;whiteSpace=wrap;html=1;" parent="1" vertex="1">
          <mxGeometry x="500" y="110" width="10" height="30" as="geometry" />
        </mxCell>
        <mxCell id="Q5hPLZrYcaLwsk61dotQ-727" value="" style="endArrow=none;html=1;rounded=0;exitX=0;exitY=0.25;exitDx=0;exitDy=0;entryX=1;entryY=0.25;entryDx=0;entryDy=0;" parent="1" source="Q5hPLZrYcaLwsk61dotQ-726" target="Q5hPLZrYcaLwsk61dotQ-726" edge="1">
          <mxGeometry width="50" height="50" relative="1" as="geometry">
            <mxPoint x="530" y="150" as="sourcePoint" />
            <mxPoint x="580" y="100" as="targetPoint" />
          </mxGeometry>
        </mxCell>
        <mxCell id="Q5hPLZrYcaLwsk61dotQ-728" value="" style="endArrow=none;html=1;rounded=0;exitX=0;exitY=0.25;exitDx=0;exitDy=0;entryX=1;entryY=0.25;entryDx=0;entryDy=0;" parent="1" edge="1">
          <mxGeometry width="50" height="50" relative="1" as="geometry">
            <mxPoint x="500" y="124.88" as="sourcePoint" />
            <mxPoint x="510" y="124.88" as="targetPoint" />
          </mxGeometry>
        </mxCell>
        <mxCell id="Q5hPLZrYcaLwsk61dotQ-729" value="" style="endArrow=none;html=1;rounded=0;exitX=0;exitY=0.25;exitDx=0;exitDy=0;entryX=1;entryY=0.25;entryDx=0;entryDy=0;" parent="1" edge="1">
          <mxGeometry width="50" height="50" relative="1" as="geometry">
            <mxPoint x="500" y="133" as="sourcePoint" />
            <mxPoint x="510" y="133" as="targetPoint" />
          </mxGeometry>
        </mxCell>
        <mxCell id="Q5hPLZrYcaLwsk61dotQ-730" value="" style="rounded=0;whiteSpace=wrap;html=1;" parent="1" vertex="1">
          <mxGeometry x="510" y="110" width="10" height="30" as="geometry" />
        </mxCell>
        <mxCell id="Q5hPLZrYcaLwsk61dotQ-731" value="" style="endArrow=none;html=1;rounded=0;exitX=0;exitY=0.25;exitDx=0;exitDy=0;entryX=1;entryY=0.25;entryDx=0;entryDy=0;" parent="1" source="Q5hPLZrYcaLwsk61dotQ-730" target="Q5hPLZrYcaLwsk61dotQ-730" edge="1">
          <mxGeometry width="50" height="50" relative="1" as="geometry">
            <mxPoint x="540" y="150" as="sourcePoint" />
            <mxPoint x="590" y="100" as="targetPoint" />
          </mxGeometry>
        </mxCell>
        <mxCell id="Q5hPLZrYcaLwsk61dotQ-732" value="" style="endArrow=none;html=1;rounded=0;exitX=0;exitY=0.25;exitDx=0;exitDy=0;entryX=1;entryY=0.25;entryDx=0;entryDy=0;" parent="1" edge="1">
          <mxGeometry width="50" height="50" relative="1" as="geometry">
            <mxPoint x="510" y="124.88" as="sourcePoint" />
            <mxPoint x="520" y="124.88" as="targetPoint" />
          </mxGeometry>
        </mxCell>
        <mxCell id="Q5hPLZrYcaLwsk61dotQ-733" value="" style="endArrow=none;html=1;rounded=0;exitX=0;exitY=0.25;exitDx=0;exitDy=0;entryX=1;entryY=0.25;entryDx=0;entryDy=0;" parent="1" edge="1">
          <mxGeometry width="50" height="50" relative="1" as="geometry">
            <mxPoint x="510" y="133" as="sourcePoint" />
            <mxPoint x="520" y="133" as="targetPoint" />
          </mxGeometry>
        </mxCell>
        <mxCell id="Q5hPLZrYcaLwsk61dotQ-734" value="" style="rounded=0;whiteSpace=wrap;html=1;" parent="1" vertex="1">
          <mxGeometry x="520" y="110" width="10" height="30" as="geometry" />
        </mxCell>
        <mxCell id="Q5hPLZrYcaLwsk61dotQ-735" value="" style="endArrow=none;html=1;rounded=0;exitX=0;exitY=0.25;exitDx=0;exitDy=0;entryX=1;entryY=0.25;entryDx=0;entryDy=0;" parent="1" source="Q5hPLZrYcaLwsk61dotQ-734" target="Q5hPLZrYcaLwsk61dotQ-734" edge="1">
          <mxGeometry width="50" height="50" relative="1" as="geometry">
            <mxPoint x="550" y="150" as="sourcePoint" />
            <mxPoint x="600" y="100" as="targetPoint" />
          </mxGeometry>
        </mxCell>
        <mxCell id="Q5hPLZrYcaLwsk61dotQ-736" value="" style="endArrow=none;html=1;rounded=0;exitX=0;exitY=0.25;exitDx=0;exitDy=0;entryX=1;entryY=0.25;entryDx=0;entryDy=0;" parent="1" edge="1">
          <mxGeometry width="50" height="50" relative="1" as="geometry">
            <mxPoint x="520" y="124.88" as="sourcePoint" />
            <mxPoint x="530" y="124.88" as="targetPoint" />
          </mxGeometry>
        </mxCell>
        <mxCell id="Q5hPLZrYcaLwsk61dotQ-737" value="" style="endArrow=none;html=1;rounded=0;exitX=0;exitY=0.25;exitDx=0;exitDy=0;entryX=1;entryY=0.25;entryDx=0;entryDy=0;" parent="1" edge="1">
          <mxGeometry width="50" height="50" relative="1" as="geometry">
            <mxPoint x="520" y="133" as="sourcePoint" />
            <mxPoint x="530" y="133" as="targetPoint" />
          </mxGeometry>
        </mxCell>
        <mxCell id="Q5hPLZrYcaLwsk61dotQ-1161" value="" style="endArrow=none;html=1;rounded=0;entryX=0.5;entryY=0;entryDx=0;entryDy=0;exitX=0.5;exitY=1;exitDx=0;exitDy=0;" parent="1" source="Q5hPLZrYcaLwsk61dotQ-5" target="Q5hPLZrYcaLwsk61dotQ-5" edge="1">
          <mxGeometry width="50" height="50" relative="1" as="geometry">
            <mxPoint x="490" y="360" as="sourcePoint" />
            <mxPoint x="540" y="310" as="targetPoint" />
          </mxGeometry>
        </mxCell>
        <mxCell id="Q5hPLZrYcaLwsk61dotQ-1163" value="" style="rounded=0;whiteSpace=wrap;html=1;" parent="1" vertex="1">
          <mxGeometry x="151.25" y="100" width="88" height="50" as="geometry" />
        </mxCell>
        <mxCell id="Q5hPLZrYcaLwsk61dotQ-1398" value="" style="rounded=0;whiteSpace=wrap;html=1;direction=south;" parent="1" vertex="1">
          <mxGeometry x="582" y="330" width="58" height="80" as="geometry" />
        </mxCell>
        <mxCell id="Q5hPLZrYcaLwsk61dotQ-1399" value="" style="rounded=0;whiteSpace=wrap;html=1;" parent="1" vertex="1">
          <mxGeometry x="591" y="340" width="10" height="30" as="geometry" />
        </mxCell>
        <mxCell id="Q5hPLZrYcaLwsk61dotQ-1400" value="" style="endArrow=none;html=1;rounded=0;exitX=0;exitY=0.25;exitDx=0;exitDy=0;entryX=1;entryY=0.25;entryDx=0;entryDy=0;" parent="1" source="Q5hPLZrYcaLwsk61dotQ-1399" target="Q5hPLZrYcaLwsk61dotQ-1399" edge="1">
          <mxGeometry width="50" height="50" relative="1" as="geometry">
            <mxPoint x="621" y="380" as="sourcePoint" />
            <mxPoint x="671" y="330" as="targetPoint" />
          </mxGeometry>
        </mxCell>
        <mxCell id="Q5hPLZrYcaLwsk61dotQ-1401" value="" style="endArrow=none;html=1;rounded=0;exitX=0;exitY=0.25;exitDx=0;exitDy=0;entryX=1;entryY=0.25;entryDx=0;entryDy=0;" parent="1" edge="1">
          <mxGeometry width="50" height="50" relative="1" as="geometry">
            <mxPoint x="591" y="354.88" as="sourcePoint" />
            <mxPoint x="601" y="354.88" as="targetPoint" />
          </mxGeometry>
        </mxCell>
        <mxCell id="Q5hPLZrYcaLwsk61dotQ-1402" value="" style="endArrow=none;html=1;rounded=0;exitX=0;exitY=0.25;exitDx=0;exitDy=0;entryX=1;entryY=0.25;entryDx=0;entryDy=0;" parent="1" edge="1">
          <mxGeometry width="50" height="50" relative="1" as="geometry">
            <mxPoint x="591" y="363" as="sourcePoint" />
            <mxPoint x="601" y="363" as="targetPoint" />
          </mxGeometry>
        </mxCell>
        <mxCell id="Q5hPLZrYcaLwsk61dotQ-1403" value="" style="rounded=0;whiteSpace=wrap;html=1;" parent="1" vertex="1">
          <mxGeometry x="601" y="340" width="10" height="30" as="geometry" />
        </mxCell>
        <mxCell id="Q5hPLZrYcaLwsk61dotQ-1404" value="" style="endArrow=none;html=1;rounded=0;exitX=0;exitY=0.25;exitDx=0;exitDy=0;entryX=1;entryY=0.25;entryDx=0;entryDy=0;" parent="1" source="Q5hPLZrYcaLwsk61dotQ-1403" target="Q5hPLZrYcaLwsk61dotQ-1403" edge="1">
          <mxGeometry width="50" height="50" relative="1" as="geometry">
            <mxPoint x="631" y="380" as="sourcePoint" />
            <mxPoint x="681" y="330" as="targetPoint" />
          </mxGeometry>
        </mxCell>
        <mxCell id="Q5hPLZrYcaLwsk61dotQ-1405" value="" style="endArrow=none;html=1;rounded=0;exitX=0;exitY=0.25;exitDx=0;exitDy=0;entryX=1;entryY=0.25;entryDx=0;entryDy=0;" parent="1" edge="1">
          <mxGeometry width="50" height="50" relative="1" as="geometry">
            <mxPoint x="601" y="354.88" as="sourcePoint" />
            <mxPoint x="611" y="354.88" as="targetPoint" />
          </mxGeometry>
        </mxCell>
        <mxCell id="Q5hPLZrYcaLwsk61dotQ-1406" value="" style="endArrow=none;html=1;rounded=0;exitX=0;exitY=0.25;exitDx=0;exitDy=0;entryX=1;entryY=0.25;entryDx=0;entryDy=0;" parent="1" edge="1">
          <mxGeometry width="50" height="50" relative="1" as="geometry">
            <mxPoint x="601" y="363" as="sourcePoint" />
            <mxPoint x="611" y="363" as="targetPoint" />
          </mxGeometry>
        </mxCell>
        <mxCell id="Q5hPLZrYcaLwsk61dotQ-1407" value="" style="rounded=0;whiteSpace=wrap;html=1;" parent="1" vertex="1">
          <mxGeometry x="611" y="340" width="10" height="30" as="geometry" />
        </mxCell>
        <mxCell id="Q5hPLZrYcaLwsk61dotQ-1408" value="" style="endArrow=none;html=1;rounded=0;exitX=0;exitY=0.25;exitDx=0;exitDy=0;entryX=1;entryY=0.25;entryDx=0;entryDy=0;" parent="1" source="Q5hPLZrYcaLwsk61dotQ-1407" target="Q5hPLZrYcaLwsk61dotQ-1407" edge="1">
          <mxGeometry width="50" height="50" relative="1" as="geometry">
            <mxPoint x="641" y="380" as="sourcePoint" />
            <mxPoint x="691" y="330" as="targetPoint" />
          </mxGeometry>
        </mxCell>
        <mxCell id="Q5hPLZrYcaLwsk61dotQ-1409" value="" style="endArrow=none;html=1;rounded=0;exitX=0;exitY=0.25;exitDx=0;exitDy=0;entryX=1;entryY=0.25;entryDx=0;entryDy=0;" parent="1" edge="1">
          <mxGeometry width="50" height="50" relative="1" as="geometry">
            <mxPoint x="611" y="354.88" as="sourcePoint" />
            <mxPoint x="621" y="354.88" as="targetPoint" />
          </mxGeometry>
        </mxCell>
        <mxCell id="Q5hPLZrYcaLwsk61dotQ-1410" value="" style="endArrow=none;html=1;rounded=0;exitX=0;exitY=0.25;exitDx=0;exitDy=0;entryX=1;entryY=0.25;entryDx=0;entryDy=0;" parent="1" edge="1">
          <mxGeometry width="50" height="50" relative="1" as="geometry">
            <mxPoint x="611" y="363" as="sourcePoint" />
            <mxPoint x="621" y="363" as="targetPoint" />
          </mxGeometry>
        </mxCell>
        <mxCell id="Q5hPLZrYcaLwsk61dotQ-1411" value="" style="rounded=0;whiteSpace=wrap;html=1;" parent="1" vertex="1">
          <mxGeometry x="621" y="340" width="10" height="30" as="geometry" />
        </mxCell>
        <mxCell id="Q5hPLZrYcaLwsk61dotQ-1412" value="" style="endArrow=none;html=1;rounded=0;exitX=0;exitY=0.25;exitDx=0;exitDy=0;entryX=1;entryY=0.25;entryDx=0;entryDy=0;" parent="1" source="Q5hPLZrYcaLwsk61dotQ-1411" target="Q5hPLZrYcaLwsk61dotQ-1411" edge="1">
          <mxGeometry width="50" height="50" relative="1" as="geometry">
            <mxPoint x="651" y="380" as="sourcePoint" />
            <mxPoint x="701" y="330" as="targetPoint" />
          </mxGeometry>
        </mxCell>
        <mxCell id="Q5hPLZrYcaLwsk61dotQ-1413" value="" style="endArrow=none;html=1;rounded=0;exitX=0;exitY=0.25;exitDx=0;exitDy=0;entryX=1;entryY=0.25;entryDx=0;entryDy=0;" parent="1" edge="1">
          <mxGeometry width="50" height="50" relative="1" as="geometry">
            <mxPoint x="621" y="354.88" as="sourcePoint" />
            <mxPoint x="631" y="354.88" as="targetPoint" />
          </mxGeometry>
        </mxCell>
        <mxCell id="Q5hPLZrYcaLwsk61dotQ-1414" value="" style="endArrow=none;html=1;rounded=0;exitX=0;exitY=0.25;exitDx=0;exitDy=0;entryX=1;entryY=0.25;entryDx=0;entryDy=0;" parent="1" edge="1">
          <mxGeometry width="50" height="50" relative="1" as="geometry">
            <mxPoint x="621" y="363" as="sourcePoint" />
            <mxPoint x="631" y="363" as="targetPoint" />
          </mxGeometry>
        </mxCell>
        <mxCell id="Q5hPLZrYcaLwsk61dotQ-1415" value="" style="rounded=0;whiteSpace=wrap;html=1;" parent="1" vertex="1">
          <mxGeometry x="591" y="370" width="10" height="30" as="geometry" />
        </mxCell>
        <mxCell id="Q5hPLZrYcaLwsk61dotQ-1416" value="" style="endArrow=none;html=1;rounded=0;exitX=0;exitY=0.25;exitDx=0;exitDy=0;entryX=1;entryY=0.25;entryDx=0;entryDy=0;" parent="1" source="Q5hPLZrYcaLwsk61dotQ-1415" target="Q5hPLZrYcaLwsk61dotQ-1415" edge="1">
          <mxGeometry width="50" height="50" relative="1" as="geometry">
            <mxPoint x="621" y="410" as="sourcePoint" />
            <mxPoint x="671" y="360" as="targetPoint" />
          </mxGeometry>
        </mxCell>
        <mxCell id="Q5hPLZrYcaLwsk61dotQ-1417" value="" style="endArrow=none;html=1;rounded=0;exitX=0;exitY=0.25;exitDx=0;exitDy=0;entryX=1;entryY=0.25;entryDx=0;entryDy=0;" parent="1" edge="1">
          <mxGeometry width="50" height="50" relative="1" as="geometry">
            <mxPoint x="591" y="384.88" as="sourcePoint" />
            <mxPoint x="601" y="384.88" as="targetPoint" />
          </mxGeometry>
        </mxCell>
        <mxCell id="Q5hPLZrYcaLwsk61dotQ-1418" value="" style="endArrow=none;html=1;rounded=0;exitX=0;exitY=0.25;exitDx=0;exitDy=0;entryX=1;entryY=0.25;entryDx=0;entryDy=0;" parent="1" edge="1">
          <mxGeometry width="50" height="50" relative="1" as="geometry">
            <mxPoint x="591" y="393" as="sourcePoint" />
            <mxPoint x="601" y="393" as="targetPoint" />
          </mxGeometry>
        </mxCell>
        <mxCell id="Q5hPLZrYcaLwsk61dotQ-1419" value="" style="rounded=0;whiteSpace=wrap;html=1;" parent="1" vertex="1">
          <mxGeometry x="601" y="370" width="10" height="30" as="geometry" />
        </mxCell>
        <mxCell id="Q5hPLZrYcaLwsk61dotQ-1420" value="" style="endArrow=none;html=1;rounded=0;exitX=0;exitY=0.25;exitDx=0;exitDy=0;entryX=1;entryY=0.25;entryDx=0;entryDy=0;" parent="1" source="Q5hPLZrYcaLwsk61dotQ-1419" target="Q5hPLZrYcaLwsk61dotQ-1419" edge="1">
          <mxGeometry width="50" height="50" relative="1" as="geometry">
            <mxPoint x="631" y="410" as="sourcePoint" />
            <mxPoint x="681" y="360" as="targetPoint" />
          </mxGeometry>
        </mxCell>
        <mxCell id="Q5hPLZrYcaLwsk61dotQ-1421" value="" style="endArrow=none;html=1;rounded=0;exitX=0;exitY=0.25;exitDx=0;exitDy=0;entryX=1;entryY=0.25;entryDx=0;entryDy=0;" parent="1" edge="1">
          <mxGeometry width="50" height="50" relative="1" as="geometry">
            <mxPoint x="601" y="384.88" as="sourcePoint" />
            <mxPoint x="611" y="384.88" as="targetPoint" />
          </mxGeometry>
        </mxCell>
        <mxCell id="Q5hPLZrYcaLwsk61dotQ-1422" value="" style="endArrow=none;html=1;rounded=0;exitX=0;exitY=0.25;exitDx=0;exitDy=0;entryX=1;entryY=0.25;entryDx=0;entryDy=0;" parent="1" edge="1">
          <mxGeometry width="50" height="50" relative="1" as="geometry">
            <mxPoint x="601" y="393" as="sourcePoint" />
            <mxPoint x="611" y="393" as="targetPoint" />
          </mxGeometry>
        </mxCell>
        <mxCell id="Q5hPLZrYcaLwsk61dotQ-1423" value="" style="rounded=0;whiteSpace=wrap;html=1;" parent="1" vertex="1">
          <mxGeometry x="611" y="370" width="10" height="30" as="geometry" />
        </mxCell>
        <mxCell id="Q5hPLZrYcaLwsk61dotQ-1424" value="" style="endArrow=none;html=1;rounded=0;exitX=0;exitY=0.25;exitDx=0;exitDy=0;entryX=1;entryY=0.25;entryDx=0;entryDy=0;" parent="1" source="Q5hPLZrYcaLwsk61dotQ-1423" target="Q5hPLZrYcaLwsk61dotQ-1423" edge="1">
          <mxGeometry width="50" height="50" relative="1" as="geometry">
            <mxPoint x="641" y="410" as="sourcePoint" />
            <mxPoint x="691" y="360" as="targetPoint" />
          </mxGeometry>
        </mxCell>
        <mxCell id="Q5hPLZrYcaLwsk61dotQ-1425" value="" style="endArrow=none;html=1;rounded=0;exitX=0;exitY=0.25;exitDx=0;exitDy=0;entryX=1;entryY=0.25;entryDx=0;entryDy=0;" parent="1" edge="1">
          <mxGeometry width="50" height="50" relative="1" as="geometry">
            <mxPoint x="611" y="384.88" as="sourcePoint" />
            <mxPoint x="621" y="384.88" as="targetPoint" />
          </mxGeometry>
        </mxCell>
        <mxCell id="Q5hPLZrYcaLwsk61dotQ-1426" value="" style="endArrow=none;html=1;rounded=0;exitX=0;exitY=0.25;exitDx=0;exitDy=0;entryX=1;entryY=0.25;entryDx=0;entryDy=0;" parent="1" edge="1">
          <mxGeometry width="50" height="50" relative="1" as="geometry">
            <mxPoint x="611" y="393" as="sourcePoint" />
            <mxPoint x="621" y="393" as="targetPoint" />
          </mxGeometry>
        </mxCell>
        <mxCell id="Q5hPLZrYcaLwsk61dotQ-1427" value="" style="rounded=0;whiteSpace=wrap;html=1;" parent="1" vertex="1">
          <mxGeometry x="621" y="370" width="10" height="30" as="geometry" />
        </mxCell>
        <mxCell id="Q5hPLZrYcaLwsk61dotQ-1428" value="" style="endArrow=none;html=1;rounded=0;exitX=0;exitY=0.25;exitDx=0;exitDy=0;entryX=1;entryY=0.25;entryDx=0;entryDy=0;" parent="1" source="Q5hPLZrYcaLwsk61dotQ-1427" target="Q5hPLZrYcaLwsk61dotQ-1427" edge="1">
          <mxGeometry width="50" height="50" relative="1" as="geometry">
            <mxPoint x="651" y="410" as="sourcePoint" />
            <mxPoint x="701" y="360" as="targetPoint" />
          </mxGeometry>
        </mxCell>
        <mxCell id="Q5hPLZrYcaLwsk61dotQ-1429" value="" style="endArrow=none;html=1;rounded=0;exitX=0;exitY=0.25;exitDx=0;exitDy=0;entryX=1;entryY=0.25;entryDx=0;entryDy=0;" parent="1" edge="1">
          <mxGeometry width="50" height="50" relative="1" as="geometry">
            <mxPoint x="621" y="384.88" as="sourcePoint" />
            <mxPoint x="631" y="384.88" as="targetPoint" />
          </mxGeometry>
        </mxCell>
        <mxCell id="Q5hPLZrYcaLwsk61dotQ-1430" value="" style="endArrow=none;html=1;rounded=0;exitX=0;exitY=0.25;exitDx=0;exitDy=0;entryX=1;entryY=0.25;entryDx=0;entryDy=0;" parent="1" edge="1">
          <mxGeometry width="50" height="50" relative="1" as="geometry">
            <mxPoint x="621" y="393" as="sourcePoint" />
            <mxPoint x="631" y="393" as="targetPoint" />
          </mxGeometry>
        </mxCell>
        <mxCell id="Q5hPLZrYcaLwsk61dotQ-1431" value="" style="rounded=0;whiteSpace=wrap;html=1;direction=south;" parent="1" vertex="1">
          <mxGeometry x="582" y="250" width="58" height="80" as="geometry" />
        </mxCell>
        <mxCell id="Q5hPLZrYcaLwsk61dotQ-1432" value="" style="rounded=0;whiteSpace=wrap;html=1;" parent="1" vertex="1">
          <mxGeometry x="591" y="260" width="10" height="30" as="geometry" />
        </mxCell>
        <mxCell id="Q5hPLZrYcaLwsk61dotQ-1433" value="" style="endArrow=none;html=1;rounded=0;exitX=0;exitY=0.25;exitDx=0;exitDy=0;entryX=1;entryY=0.25;entryDx=0;entryDy=0;" parent="1" source="Q5hPLZrYcaLwsk61dotQ-1432" target="Q5hPLZrYcaLwsk61dotQ-1432" edge="1">
          <mxGeometry width="50" height="50" relative="1" as="geometry">
            <mxPoint x="621" y="300" as="sourcePoint" />
            <mxPoint x="671" y="250" as="targetPoint" />
          </mxGeometry>
        </mxCell>
        <mxCell id="Q5hPLZrYcaLwsk61dotQ-1434" value="" style="endArrow=none;html=1;rounded=0;exitX=0;exitY=0.25;exitDx=0;exitDy=0;entryX=1;entryY=0.25;entryDx=0;entryDy=0;" parent="1" edge="1">
          <mxGeometry width="50" height="50" relative="1" as="geometry">
            <mxPoint x="591" y="274.88" as="sourcePoint" />
            <mxPoint x="601" y="274.88" as="targetPoint" />
          </mxGeometry>
        </mxCell>
        <mxCell id="Q5hPLZrYcaLwsk61dotQ-1435" value="" style="endArrow=none;html=1;rounded=0;exitX=0;exitY=0.25;exitDx=0;exitDy=0;entryX=1;entryY=0.25;entryDx=0;entryDy=0;" parent="1" edge="1">
          <mxGeometry width="50" height="50" relative="1" as="geometry">
            <mxPoint x="591" y="283" as="sourcePoint" />
            <mxPoint x="601" y="283" as="targetPoint" />
          </mxGeometry>
        </mxCell>
        <mxCell id="Q5hPLZrYcaLwsk61dotQ-1436" value="" style="rounded=0;whiteSpace=wrap;html=1;" parent="1" vertex="1">
          <mxGeometry x="601" y="260" width="10" height="30" as="geometry" />
        </mxCell>
        <mxCell id="Q5hPLZrYcaLwsk61dotQ-1437" value="" style="endArrow=none;html=1;rounded=0;exitX=0;exitY=0.25;exitDx=0;exitDy=0;entryX=1;entryY=0.25;entryDx=0;entryDy=0;" parent="1" source="Q5hPLZrYcaLwsk61dotQ-1436" target="Q5hPLZrYcaLwsk61dotQ-1436" edge="1">
          <mxGeometry width="50" height="50" relative="1" as="geometry">
            <mxPoint x="631" y="300" as="sourcePoint" />
            <mxPoint x="681" y="250" as="targetPoint" />
          </mxGeometry>
        </mxCell>
        <mxCell id="Q5hPLZrYcaLwsk61dotQ-1438" value="" style="endArrow=none;html=1;rounded=0;exitX=0;exitY=0.25;exitDx=0;exitDy=0;entryX=1;entryY=0.25;entryDx=0;entryDy=0;" parent="1" edge="1">
          <mxGeometry width="50" height="50" relative="1" as="geometry">
            <mxPoint x="601" y="274.88" as="sourcePoint" />
            <mxPoint x="611" y="274.88" as="targetPoint" />
          </mxGeometry>
        </mxCell>
        <mxCell id="Q5hPLZrYcaLwsk61dotQ-1439" value="" style="endArrow=none;html=1;rounded=0;exitX=0;exitY=0.25;exitDx=0;exitDy=0;entryX=1;entryY=0.25;entryDx=0;entryDy=0;" parent="1" edge="1">
          <mxGeometry width="50" height="50" relative="1" as="geometry">
            <mxPoint x="601" y="283" as="sourcePoint" />
            <mxPoint x="611" y="283" as="targetPoint" />
          </mxGeometry>
        </mxCell>
        <mxCell id="Q5hPLZrYcaLwsk61dotQ-1440" value="" style="rounded=0;whiteSpace=wrap;html=1;" parent="1" vertex="1">
          <mxGeometry x="611" y="260" width="10" height="30" as="geometry" />
        </mxCell>
        <mxCell id="Q5hPLZrYcaLwsk61dotQ-1441" value="" style="endArrow=none;html=1;rounded=0;exitX=0;exitY=0.25;exitDx=0;exitDy=0;entryX=1;entryY=0.25;entryDx=0;entryDy=0;" parent="1" source="Q5hPLZrYcaLwsk61dotQ-1440" target="Q5hPLZrYcaLwsk61dotQ-1440" edge="1">
          <mxGeometry width="50" height="50" relative="1" as="geometry">
            <mxPoint x="641" y="300" as="sourcePoint" />
            <mxPoint x="691" y="250" as="targetPoint" />
          </mxGeometry>
        </mxCell>
        <mxCell id="Q5hPLZrYcaLwsk61dotQ-1442" value="" style="endArrow=none;html=1;rounded=0;exitX=0;exitY=0.25;exitDx=0;exitDy=0;entryX=1;entryY=0.25;entryDx=0;entryDy=0;" parent="1" edge="1">
          <mxGeometry width="50" height="50" relative="1" as="geometry">
            <mxPoint x="611" y="274.88" as="sourcePoint" />
            <mxPoint x="621" y="274.88" as="targetPoint" />
          </mxGeometry>
        </mxCell>
        <mxCell id="Q5hPLZrYcaLwsk61dotQ-1443" value="" style="endArrow=none;html=1;rounded=0;exitX=0;exitY=0.25;exitDx=0;exitDy=0;entryX=1;entryY=0.25;entryDx=0;entryDy=0;" parent="1" edge="1">
          <mxGeometry width="50" height="50" relative="1" as="geometry">
            <mxPoint x="611" y="283" as="sourcePoint" />
            <mxPoint x="621" y="283" as="targetPoint" />
          </mxGeometry>
        </mxCell>
        <mxCell id="Q5hPLZrYcaLwsk61dotQ-1444" value="" style="rounded=0;whiteSpace=wrap;html=1;" parent="1" vertex="1">
          <mxGeometry x="621" y="260" width="10" height="30" as="geometry" />
        </mxCell>
        <mxCell id="Q5hPLZrYcaLwsk61dotQ-1445" value="" style="endArrow=none;html=1;rounded=0;exitX=0;exitY=0.25;exitDx=0;exitDy=0;entryX=1;entryY=0.25;entryDx=0;entryDy=0;" parent="1" source="Q5hPLZrYcaLwsk61dotQ-1444" target="Q5hPLZrYcaLwsk61dotQ-1444" edge="1">
          <mxGeometry width="50" height="50" relative="1" as="geometry">
            <mxPoint x="651" y="300" as="sourcePoint" />
            <mxPoint x="701" y="250" as="targetPoint" />
          </mxGeometry>
        </mxCell>
        <mxCell id="Q5hPLZrYcaLwsk61dotQ-1446" value="" style="endArrow=none;html=1;rounded=0;exitX=0;exitY=0.25;exitDx=0;exitDy=0;entryX=1;entryY=0.25;entryDx=0;entryDy=0;" parent="1" edge="1">
          <mxGeometry width="50" height="50" relative="1" as="geometry">
            <mxPoint x="621" y="274.88" as="sourcePoint" />
            <mxPoint x="631" y="274.88" as="targetPoint" />
          </mxGeometry>
        </mxCell>
        <mxCell id="Q5hPLZrYcaLwsk61dotQ-1447" value="" style="endArrow=none;html=1;rounded=0;exitX=0;exitY=0.25;exitDx=0;exitDy=0;entryX=1;entryY=0.25;entryDx=0;entryDy=0;" parent="1" edge="1">
          <mxGeometry width="50" height="50" relative="1" as="geometry">
            <mxPoint x="621" y="283" as="sourcePoint" />
            <mxPoint x="631" y="283" as="targetPoint" />
          </mxGeometry>
        </mxCell>
        <mxCell id="Q5hPLZrYcaLwsk61dotQ-1448" value="" style="rounded=0;whiteSpace=wrap;html=1;" parent="1" vertex="1">
          <mxGeometry x="591" y="290" width="10" height="30" as="geometry" />
        </mxCell>
        <mxCell id="Q5hPLZrYcaLwsk61dotQ-1449" value="" style="endArrow=none;html=1;rounded=0;exitX=0;exitY=0.25;exitDx=0;exitDy=0;entryX=1;entryY=0.25;entryDx=0;entryDy=0;" parent="1" source="Q5hPLZrYcaLwsk61dotQ-1448" target="Q5hPLZrYcaLwsk61dotQ-1448" edge="1">
          <mxGeometry width="50" height="50" relative="1" as="geometry">
            <mxPoint x="621" y="330" as="sourcePoint" />
            <mxPoint x="671" y="280" as="targetPoint" />
          </mxGeometry>
        </mxCell>
        <mxCell id="Q5hPLZrYcaLwsk61dotQ-1450" value="" style="endArrow=none;html=1;rounded=0;exitX=0;exitY=0.25;exitDx=0;exitDy=0;entryX=1;entryY=0.25;entryDx=0;entryDy=0;" parent="1" edge="1">
          <mxGeometry width="50" height="50" relative="1" as="geometry">
            <mxPoint x="591" y="304.88" as="sourcePoint" />
            <mxPoint x="601" y="304.88" as="targetPoint" />
          </mxGeometry>
        </mxCell>
        <mxCell id="Q5hPLZrYcaLwsk61dotQ-1451" value="" style="endArrow=none;html=1;rounded=0;exitX=0;exitY=0.25;exitDx=0;exitDy=0;entryX=1;entryY=0.25;entryDx=0;entryDy=0;" parent="1" edge="1">
          <mxGeometry width="50" height="50" relative="1" as="geometry">
            <mxPoint x="591" y="313" as="sourcePoint" />
            <mxPoint x="601" y="313" as="targetPoint" />
          </mxGeometry>
        </mxCell>
        <mxCell id="Q5hPLZrYcaLwsk61dotQ-1452" value="" style="rounded=0;whiteSpace=wrap;html=1;" parent="1" vertex="1">
          <mxGeometry x="601" y="290" width="10" height="30" as="geometry" />
        </mxCell>
        <mxCell id="Q5hPLZrYcaLwsk61dotQ-1453" value="" style="endArrow=none;html=1;rounded=0;exitX=0;exitY=0.25;exitDx=0;exitDy=0;entryX=1;entryY=0.25;entryDx=0;entryDy=0;" parent="1" source="Q5hPLZrYcaLwsk61dotQ-1452" target="Q5hPLZrYcaLwsk61dotQ-1452" edge="1">
          <mxGeometry width="50" height="50" relative="1" as="geometry">
            <mxPoint x="631" y="330" as="sourcePoint" />
            <mxPoint x="681" y="280" as="targetPoint" />
          </mxGeometry>
        </mxCell>
        <mxCell id="Q5hPLZrYcaLwsk61dotQ-1454" value="" style="endArrow=none;html=1;rounded=0;exitX=0;exitY=0.25;exitDx=0;exitDy=0;entryX=1;entryY=0.25;entryDx=0;entryDy=0;" parent="1" edge="1">
          <mxGeometry width="50" height="50" relative="1" as="geometry">
            <mxPoint x="601" y="304.88" as="sourcePoint" />
            <mxPoint x="611" y="304.88" as="targetPoint" />
          </mxGeometry>
        </mxCell>
        <mxCell id="Q5hPLZrYcaLwsk61dotQ-1455" value="" style="endArrow=none;html=1;rounded=0;exitX=0;exitY=0.25;exitDx=0;exitDy=0;entryX=1;entryY=0.25;entryDx=0;entryDy=0;" parent="1" edge="1">
          <mxGeometry width="50" height="50" relative="1" as="geometry">
            <mxPoint x="601" y="313" as="sourcePoint" />
            <mxPoint x="611" y="313" as="targetPoint" />
          </mxGeometry>
        </mxCell>
        <mxCell id="Q5hPLZrYcaLwsk61dotQ-1456" value="" style="rounded=0;whiteSpace=wrap;html=1;" parent="1" vertex="1">
          <mxGeometry x="611" y="290" width="10" height="30" as="geometry" />
        </mxCell>
        <mxCell id="Q5hPLZrYcaLwsk61dotQ-1457" value="" style="endArrow=none;html=1;rounded=0;exitX=0;exitY=0.25;exitDx=0;exitDy=0;entryX=1;entryY=0.25;entryDx=0;entryDy=0;" parent="1" source="Q5hPLZrYcaLwsk61dotQ-1456" target="Q5hPLZrYcaLwsk61dotQ-1456" edge="1">
          <mxGeometry width="50" height="50" relative="1" as="geometry">
            <mxPoint x="641" y="330" as="sourcePoint" />
            <mxPoint x="691" y="280" as="targetPoint" />
          </mxGeometry>
        </mxCell>
        <mxCell id="Q5hPLZrYcaLwsk61dotQ-1458" value="" style="endArrow=none;html=1;rounded=0;exitX=0;exitY=0.25;exitDx=0;exitDy=0;entryX=1;entryY=0.25;entryDx=0;entryDy=0;" parent="1" edge="1">
          <mxGeometry width="50" height="50" relative="1" as="geometry">
            <mxPoint x="611" y="304.88" as="sourcePoint" />
            <mxPoint x="621" y="304.88" as="targetPoint" />
          </mxGeometry>
        </mxCell>
        <mxCell id="Q5hPLZrYcaLwsk61dotQ-1459" value="" style="endArrow=none;html=1;rounded=0;exitX=0;exitY=0.25;exitDx=0;exitDy=0;entryX=1;entryY=0.25;entryDx=0;entryDy=0;" parent="1" edge="1">
          <mxGeometry width="50" height="50" relative="1" as="geometry">
            <mxPoint x="611" y="313" as="sourcePoint" />
            <mxPoint x="621" y="313" as="targetPoint" />
          </mxGeometry>
        </mxCell>
        <mxCell id="Q5hPLZrYcaLwsk61dotQ-1460" value="" style="rounded=0;whiteSpace=wrap;html=1;" parent="1" vertex="1">
          <mxGeometry x="621" y="290" width="10" height="30" as="geometry" />
        </mxCell>
        <mxCell id="Q5hPLZrYcaLwsk61dotQ-1461" value="" style="endArrow=none;html=1;rounded=0;exitX=0;exitY=0.25;exitDx=0;exitDy=0;entryX=1;entryY=0.25;entryDx=0;entryDy=0;" parent="1" source="Q5hPLZrYcaLwsk61dotQ-1460" target="Q5hPLZrYcaLwsk61dotQ-1460" edge="1">
          <mxGeometry width="50" height="50" relative="1" as="geometry">
            <mxPoint x="651" y="330" as="sourcePoint" />
            <mxPoint x="701" y="280" as="targetPoint" />
          </mxGeometry>
        </mxCell>
        <mxCell id="Q5hPLZrYcaLwsk61dotQ-1462" value="" style="endArrow=none;html=1;rounded=0;exitX=0;exitY=0.25;exitDx=0;exitDy=0;entryX=1;entryY=0.25;entryDx=0;entryDy=0;" parent="1" edge="1">
          <mxGeometry width="50" height="50" relative="1" as="geometry">
            <mxPoint x="621" y="304.88" as="sourcePoint" />
            <mxPoint x="631" y="304.88" as="targetPoint" />
          </mxGeometry>
        </mxCell>
        <mxCell id="Q5hPLZrYcaLwsk61dotQ-1463" value="" style="endArrow=none;html=1;rounded=0;exitX=0;exitY=0.25;exitDx=0;exitDy=0;entryX=1;entryY=0.25;entryDx=0;entryDy=0;" parent="1" edge="1">
          <mxGeometry width="50" height="50" relative="1" as="geometry">
            <mxPoint x="621" y="313" as="sourcePoint" />
            <mxPoint x="631" y="313" as="targetPoint" />
          </mxGeometry>
        </mxCell>
        <mxCell id="Q5hPLZrYcaLwsk61dotQ-1464" value="" style="rounded=0;whiteSpace=wrap;html=1;direction=south;" parent="1" vertex="1">
          <mxGeometry x="582" y="170" width="58" height="80" as="geometry" />
        </mxCell>
        <mxCell id="Q5hPLZrYcaLwsk61dotQ-1465" value="" style="rounded=0;whiteSpace=wrap;html=1;" parent="1" vertex="1">
          <mxGeometry x="591" y="180" width="10" height="30" as="geometry" />
        </mxCell>
        <mxCell id="Q5hPLZrYcaLwsk61dotQ-1466" value="" style="endArrow=none;html=1;rounded=0;exitX=0;exitY=0.25;exitDx=0;exitDy=0;entryX=1;entryY=0.25;entryDx=0;entryDy=0;" parent="1" source="Q5hPLZrYcaLwsk61dotQ-1465" target="Q5hPLZrYcaLwsk61dotQ-1465" edge="1">
          <mxGeometry width="50" height="50" relative="1" as="geometry">
            <mxPoint x="621" y="220" as="sourcePoint" />
            <mxPoint x="671" y="170" as="targetPoint" />
          </mxGeometry>
        </mxCell>
        <mxCell id="Q5hPLZrYcaLwsk61dotQ-1467" value="" style="endArrow=none;html=1;rounded=0;exitX=0;exitY=0.25;exitDx=0;exitDy=0;entryX=1;entryY=0.25;entryDx=0;entryDy=0;" parent="1" edge="1">
          <mxGeometry width="50" height="50" relative="1" as="geometry">
            <mxPoint x="591" y="194.88" as="sourcePoint" />
            <mxPoint x="601" y="194.88" as="targetPoint" />
          </mxGeometry>
        </mxCell>
        <mxCell id="Q5hPLZrYcaLwsk61dotQ-1468" value="" style="endArrow=none;html=1;rounded=0;exitX=0;exitY=0.25;exitDx=0;exitDy=0;entryX=1;entryY=0.25;entryDx=0;entryDy=0;" parent="1" edge="1">
          <mxGeometry width="50" height="50" relative="1" as="geometry">
            <mxPoint x="591" y="203" as="sourcePoint" />
            <mxPoint x="601" y="203" as="targetPoint" />
          </mxGeometry>
        </mxCell>
        <mxCell id="Q5hPLZrYcaLwsk61dotQ-1469" value="" style="rounded=0;whiteSpace=wrap;html=1;" parent="1" vertex="1">
          <mxGeometry x="601" y="180" width="10" height="30" as="geometry" />
        </mxCell>
        <mxCell id="Q5hPLZrYcaLwsk61dotQ-1470" value="" style="endArrow=none;html=1;rounded=0;exitX=0;exitY=0.25;exitDx=0;exitDy=0;entryX=1;entryY=0.25;entryDx=0;entryDy=0;" parent="1" source="Q5hPLZrYcaLwsk61dotQ-1469" target="Q5hPLZrYcaLwsk61dotQ-1469" edge="1">
          <mxGeometry width="50" height="50" relative="1" as="geometry">
            <mxPoint x="631" y="220" as="sourcePoint" />
            <mxPoint x="681" y="170" as="targetPoint" />
          </mxGeometry>
        </mxCell>
        <mxCell id="Q5hPLZrYcaLwsk61dotQ-1471" value="" style="endArrow=none;html=1;rounded=0;exitX=0;exitY=0.25;exitDx=0;exitDy=0;entryX=1;entryY=0.25;entryDx=0;entryDy=0;" parent="1" edge="1">
          <mxGeometry width="50" height="50" relative="1" as="geometry">
            <mxPoint x="601" y="194.88" as="sourcePoint" />
            <mxPoint x="611" y="194.88" as="targetPoint" />
          </mxGeometry>
        </mxCell>
        <mxCell id="Q5hPLZrYcaLwsk61dotQ-1472" value="" style="endArrow=none;html=1;rounded=0;exitX=0;exitY=0.25;exitDx=0;exitDy=0;entryX=1;entryY=0.25;entryDx=0;entryDy=0;" parent="1" edge="1">
          <mxGeometry width="50" height="50" relative="1" as="geometry">
            <mxPoint x="601" y="203" as="sourcePoint" />
            <mxPoint x="611" y="203" as="targetPoint" />
          </mxGeometry>
        </mxCell>
        <mxCell id="Q5hPLZrYcaLwsk61dotQ-1473" value="" style="rounded=0;whiteSpace=wrap;html=1;" parent="1" vertex="1">
          <mxGeometry x="611" y="180" width="10" height="30" as="geometry" />
        </mxCell>
        <mxCell id="Q5hPLZrYcaLwsk61dotQ-1474" value="" style="endArrow=none;html=1;rounded=0;exitX=0;exitY=0.25;exitDx=0;exitDy=0;entryX=1;entryY=0.25;entryDx=0;entryDy=0;" parent="1" source="Q5hPLZrYcaLwsk61dotQ-1473" target="Q5hPLZrYcaLwsk61dotQ-1473" edge="1">
          <mxGeometry width="50" height="50" relative="1" as="geometry">
            <mxPoint x="641" y="220" as="sourcePoint" />
            <mxPoint x="691" y="170" as="targetPoint" />
          </mxGeometry>
        </mxCell>
        <mxCell id="Q5hPLZrYcaLwsk61dotQ-1475" value="" style="endArrow=none;html=1;rounded=0;exitX=0;exitY=0.25;exitDx=0;exitDy=0;entryX=1;entryY=0.25;entryDx=0;entryDy=0;" parent="1" edge="1">
          <mxGeometry width="50" height="50" relative="1" as="geometry">
            <mxPoint x="611" y="194.88" as="sourcePoint" />
            <mxPoint x="621" y="194.88" as="targetPoint" />
          </mxGeometry>
        </mxCell>
        <mxCell id="Q5hPLZrYcaLwsk61dotQ-1476" value="" style="endArrow=none;html=1;rounded=0;exitX=0;exitY=0.25;exitDx=0;exitDy=0;entryX=1;entryY=0.25;entryDx=0;entryDy=0;" parent="1" edge="1">
          <mxGeometry width="50" height="50" relative="1" as="geometry">
            <mxPoint x="611" y="203" as="sourcePoint" />
            <mxPoint x="621" y="203" as="targetPoint" />
          </mxGeometry>
        </mxCell>
        <mxCell id="Q5hPLZrYcaLwsk61dotQ-1477" value="" style="rounded=0;whiteSpace=wrap;html=1;" parent="1" vertex="1">
          <mxGeometry x="621" y="180" width="10" height="30" as="geometry" />
        </mxCell>
        <mxCell id="Q5hPLZrYcaLwsk61dotQ-1478" value="" style="endArrow=none;html=1;rounded=0;exitX=0;exitY=0.25;exitDx=0;exitDy=0;entryX=1;entryY=0.25;entryDx=0;entryDy=0;" parent="1" source="Q5hPLZrYcaLwsk61dotQ-1477" target="Q5hPLZrYcaLwsk61dotQ-1477" edge="1">
          <mxGeometry width="50" height="50" relative="1" as="geometry">
            <mxPoint x="651" y="220" as="sourcePoint" />
            <mxPoint x="701" y="170" as="targetPoint" />
          </mxGeometry>
        </mxCell>
        <mxCell id="Q5hPLZrYcaLwsk61dotQ-1479" value="" style="endArrow=none;html=1;rounded=0;exitX=0;exitY=0.25;exitDx=0;exitDy=0;entryX=1;entryY=0.25;entryDx=0;entryDy=0;" parent="1" edge="1">
          <mxGeometry width="50" height="50" relative="1" as="geometry">
            <mxPoint x="621" y="194.88" as="sourcePoint" />
            <mxPoint x="631" y="194.88" as="targetPoint" />
          </mxGeometry>
        </mxCell>
        <mxCell id="Q5hPLZrYcaLwsk61dotQ-1480" value="" style="endArrow=none;html=1;rounded=0;exitX=0;exitY=0.25;exitDx=0;exitDy=0;entryX=1;entryY=0.25;entryDx=0;entryDy=0;" parent="1" edge="1">
          <mxGeometry width="50" height="50" relative="1" as="geometry">
            <mxPoint x="621" y="203" as="sourcePoint" />
            <mxPoint x="631" y="203" as="targetPoint" />
          </mxGeometry>
        </mxCell>
        <mxCell id="Q5hPLZrYcaLwsk61dotQ-1481" value="" style="rounded=0;whiteSpace=wrap;html=1;" parent="1" vertex="1">
          <mxGeometry x="591" y="210" width="10" height="30" as="geometry" />
        </mxCell>
        <mxCell id="Q5hPLZrYcaLwsk61dotQ-1482" value="" style="endArrow=none;html=1;rounded=0;exitX=0;exitY=0.25;exitDx=0;exitDy=0;entryX=1;entryY=0.25;entryDx=0;entryDy=0;" parent="1" source="Q5hPLZrYcaLwsk61dotQ-1481" target="Q5hPLZrYcaLwsk61dotQ-1481" edge="1">
          <mxGeometry width="50" height="50" relative="1" as="geometry">
            <mxPoint x="621" y="250" as="sourcePoint" />
            <mxPoint x="671" y="200" as="targetPoint" />
          </mxGeometry>
        </mxCell>
        <mxCell id="Q5hPLZrYcaLwsk61dotQ-1483" value="" style="endArrow=none;html=1;rounded=0;exitX=0;exitY=0.25;exitDx=0;exitDy=0;entryX=1;entryY=0.25;entryDx=0;entryDy=0;" parent="1" edge="1">
          <mxGeometry width="50" height="50" relative="1" as="geometry">
            <mxPoint x="591" y="224.88" as="sourcePoint" />
            <mxPoint x="601" y="224.88" as="targetPoint" />
          </mxGeometry>
        </mxCell>
        <mxCell id="Q5hPLZrYcaLwsk61dotQ-1484" value="" style="endArrow=none;html=1;rounded=0;exitX=0;exitY=0.25;exitDx=0;exitDy=0;entryX=1;entryY=0.25;entryDx=0;entryDy=0;" parent="1" edge="1">
          <mxGeometry width="50" height="50" relative="1" as="geometry">
            <mxPoint x="591" y="233" as="sourcePoint" />
            <mxPoint x="601" y="233" as="targetPoint" />
          </mxGeometry>
        </mxCell>
        <mxCell id="Q5hPLZrYcaLwsk61dotQ-1485" value="" style="rounded=0;whiteSpace=wrap;html=1;" parent="1" vertex="1">
          <mxGeometry x="601" y="210" width="10" height="30" as="geometry" />
        </mxCell>
        <mxCell id="Q5hPLZrYcaLwsk61dotQ-1486" value="" style="endArrow=none;html=1;rounded=0;exitX=0;exitY=0.25;exitDx=0;exitDy=0;entryX=1;entryY=0.25;entryDx=0;entryDy=0;" parent="1" source="Q5hPLZrYcaLwsk61dotQ-1485" target="Q5hPLZrYcaLwsk61dotQ-1485" edge="1">
          <mxGeometry width="50" height="50" relative="1" as="geometry">
            <mxPoint x="631" y="250" as="sourcePoint" />
            <mxPoint x="681" y="200" as="targetPoint" />
          </mxGeometry>
        </mxCell>
        <mxCell id="Q5hPLZrYcaLwsk61dotQ-1487" value="" style="endArrow=none;html=1;rounded=0;exitX=0;exitY=0.25;exitDx=0;exitDy=0;entryX=1;entryY=0.25;entryDx=0;entryDy=0;" parent="1" edge="1">
          <mxGeometry width="50" height="50" relative="1" as="geometry">
            <mxPoint x="601" y="224.88" as="sourcePoint" />
            <mxPoint x="611" y="224.88" as="targetPoint" />
          </mxGeometry>
        </mxCell>
        <mxCell id="Q5hPLZrYcaLwsk61dotQ-1488" value="" style="endArrow=none;html=1;rounded=0;exitX=0;exitY=0.25;exitDx=0;exitDy=0;entryX=1;entryY=0.25;entryDx=0;entryDy=0;" parent="1" edge="1">
          <mxGeometry width="50" height="50" relative="1" as="geometry">
            <mxPoint x="601" y="233" as="sourcePoint" />
            <mxPoint x="611" y="233" as="targetPoint" />
          </mxGeometry>
        </mxCell>
        <mxCell id="Q5hPLZrYcaLwsk61dotQ-1489" value="" style="rounded=0;whiteSpace=wrap;html=1;" parent="1" vertex="1">
          <mxGeometry x="611" y="210" width="10" height="30" as="geometry" />
        </mxCell>
        <mxCell id="Q5hPLZrYcaLwsk61dotQ-1490" value="" style="endArrow=none;html=1;rounded=0;exitX=0;exitY=0.25;exitDx=0;exitDy=0;entryX=1;entryY=0.25;entryDx=0;entryDy=0;" parent="1" source="Q5hPLZrYcaLwsk61dotQ-1489" target="Q5hPLZrYcaLwsk61dotQ-1489" edge="1">
          <mxGeometry width="50" height="50" relative="1" as="geometry">
            <mxPoint x="641" y="250" as="sourcePoint" />
            <mxPoint x="691" y="200" as="targetPoint" />
          </mxGeometry>
        </mxCell>
        <mxCell id="Q5hPLZrYcaLwsk61dotQ-1491" value="" style="endArrow=none;html=1;rounded=0;exitX=0;exitY=0.25;exitDx=0;exitDy=0;entryX=1;entryY=0.25;entryDx=0;entryDy=0;" parent="1" edge="1">
          <mxGeometry width="50" height="50" relative="1" as="geometry">
            <mxPoint x="611" y="224.88" as="sourcePoint" />
            <mxPoint x="621" y="224.88" as="targetPoint" />
          </mxGeometry>
        </mxCell>
        <mxCell id="Q5hPLZrYcaLwsk61dotQ-1492" value="" style="endArrow=none;html=1;rounded=0;exitX=0;exitY=0.25;exitDx=0;exitDy=0;entryX=1;entryY=0.25;entryDx=0;entryDy=0;" parent="1" edge="1">
          <mxGeometry width="50" height="50" relative="1" as="geometry">
            <mxPoint x="611" y="233" as="sourcePoint" />
            <mxPoint x="621" y="233" as="targetPoint" />
          </mxGeometry>
        </mxCell>
        <mxCell id="Q5hPLZrYcaLwsk61dotQ-1493" value="" style="rounded=0;whiteSpace=wrap;html=1;" parent="1" vertex="1">
          <mxGeometry x="621" y="210" width="10" height="30" as="geometry" />
        </mxCell>
        <mxCell id="Q5hPLZrYcaLwsk61dotQ-1494" value="" style="endArrow=none;html=1;rounded=0;exitX=0;exitY=0.25;exitDx=0;exitDy=0;entryX=1;entryY=0.25;entryDx=0;entryDy=0;" parent="1" source="Q5hPLZrYcaLwsk61dotQ-1493" target="Q5hPLZrYcaLwsk61dotQ-1493" edge="1">
          <mxGeometry width="50" height="50" relative="1" as="geometry">
            <mxPoint x="651" y="250" as="sourcePoint" />
            <mxPoint x="701" y="200" as="targetPoint" />
          </mxGeometry>
        </mxCell>
        <mxCell id="Q5hPLZrYcaLwsk61dotQ-1495" value="" style="endArrow=none;html=1;rounded=0;exitX=0;exitY=0.25;exitDx=0;exitDy=0;entryX=1;entryY=0.25;entryDx=0;entryDy=0;" parent="1" edge="1">
          <mxGeometry width="50" height="50" relative="1" as="geometry">
            <mxPoint x="621" y="224.88" as="sourcePoint" />
            <mxPoint x="631" y="224.88" as="targetPoint" />
          </mxGeometry>
        </mxCell>
        <mxCell id="Q5hPLZrYcaLwsk61dotQ-1496" value="" style="endArrow=none;html=1;rounded=0;exitX=0;exitY=0.25;exitDx=0;exitDy=0;entryX=1;entryY=0.25;entryDx=0;entryDy=0;" parent="1" edge="1">
          <mxGeometry width="50" height="50" relative="1" as="geometry">
            <mxPoint x="621" y="233" as="sourcePoint" />
            <mxPoint x="631" y="233" as="targetPoint" />
          </mxGeometry>
        </mxCell>
        <mxCell id="Q5hPLZrYcaLwsk61dotQ-1533" value="" style="rounded=0;whiteSpace=wrap;html=1;" parent="1" vertex="1">
          <mxGeometry x="392" y="655" width="100" height="50" as="geometry" />
        </mxCell>
        <mxCell id="Q5hPLZrYcaLwsk61dotQ-1535" value="" style="rounded=0;whiteSpace=wrap;html=1;" parent="1" vertex="1">
          <mxGeometry x="292" y="655" width="100" height="50" as="geometry" />
        </mxCell>
        <mxCell id="Q5hPLZrYcaLwsk61dotQ-1536" value="" style="rounded=0;whiteSpace=wrap;html=1;" parent="1" vertex="1">
          <mxGeometry x="302" y="665" width="10" height="30" as="geometry" />
        </mxCell>
        <mxCell id="Q5hPLZrYcaLwsk61dotQ-1537" value="" style="endArrow=none;html=1;rounded=0;exitX=0;exitY=0.25;exitDx=0;exitDy=0;entryX=1;entryY=0.25;entryDx=0;entryDy=0;" parent="1" source="Q5hPLZrYcaLwsk61dotQ-1536" target="Q5hPLZrYcaLwsk61dotQ-1536" edge="1">
          <mxGeometry width="50" height="50" relative="1" as="geometry">
            <mxPoint x="332" y="705" as="sourcePoint" />
            <mxPoint x="382" y="655" as="targetPoint" />
          </mxGeometry>
        </mxCell>
        <mxCell id="Q5hPLZrYcaLwsk61dotQ-1538" value="" style="endArrow=none;html=1;rounded=0;exitX=0;exitY=0.25;exitDx=0;exitDy=0;entryX=1;entryY=0.25;entryDx=0;entryDy=0;" parent="1" edge="1">
          <mxGeometry width="50" height="50" relative="1" as="geometry">
            <mxPoint x="302" y="679.88" as="sourcePoint" />
            <mxPoint x="312" y="679.88" as="targetPoint" />
          </mxGeometry>
        </mxCell>
        <mxCell id="Q5hPLZrYcaLwsk61dotQ-1539" value="" style="endArrow=none;html=1;rounded=0;exitX=0;exitY=0.25;exitDx=0;exitDy=0;entryX=1;entryY=0.25;entryDx=0;entryDy=0;" parent="1" edge="1">
          <mxGeometry width="50" height="50" relative="1" as="geometry">
            <mxPoint x="302" y="688" as="sourcePoint" />
            <mxPoint x="312" y="688" as="targetPoint" />
          </mxGeometry>
        </mxCell>
        <mxCell id="Q5hPLZrYcaLwsk61dotQ-1540" value="" style="rounded=0;whiteSpace=wrap;html=1;" parent="1" vertex="1">
          <mxGeometry x="312" y="665" width="10" height="30" as="geometry" />
        </mxCell>
        <mxCell id="Q5hPLZrYcaLwsk61dotQ-1541" value="" style="endArrow=none;html=1;rounded=0;exitX=0;exitY=0.25;exitDx=0;exitDy=0;entryX=1;entryY=0.25;entryDx=0;entryDy=0;" parent="1" source="Q5hPLZrYcaLwsk61dotQ-1540" target="Q5hPLZrYcaLwsk61dotQ-1540" edge="1">
          <mxGeometry width="50" height="50" relative="1" as="geometry">
            <mxPoint x="342" y="705" as="sourcePoint" />
            <mxPoint x="392" y="655" as="targetPoint" />
          </mxGeometry>
        </mxCell>
        <mxCell id="Q5hPLZrYcaLwsk61dotQ-1542" value="" style="endArrow=none;html=1;rounded=0;exitX=0;exitY=0.25;exitDx=0;exitDy=0;entryX=1;entryY=0.25;entryDx=0;entryDy=0;" parent="1" edge="1">
          <mxGeometry width="50" height="50" relative="1" as="geometry">
            <mxPoint x="312" y="679.88" as="sourcePoint" />
            <mxPoint x="322" y="679.88" as="targetPoint" />
          </mxGeometry>
        </mxCell>
        <mxCell id="Q5hPLZrYcaLwsk61dotQ-1543" value="" style="endArrow=none;html=1;rounded=0;exitX=0;exitY=0.25;exitDx=0;exitDy=0;entryX=1;entryY=0.25;entryDx=0;entryDy=0;" parent="1" edge="1">
          <mxGeometry width="50" height="50" relative="1" as="geometry">
            <mxPoint x="312" y="688" as="sourcePoint" />
            <mxPoint x="322" y="688" as="targetPoint" />
          </mxGeometry>
        </mxCell>
        <mxCell id="Q5hPLZrYcaLwsk61dotQ-1544" value="" style="rounded=0;whiteSpace=wrap;html=1;" parent="1" vertex="1">
          <mxGeometry x="322" y="665" width="10" height="30" as="geometry" />
        </mxCell>
        <mxCell id="Q5hPLZrYcaLwsk61dotQ-1545" value="" style="endArrow=none;html=1;rounded=0;exitX=0;exitY=0.25;exitDx=0;exitDy=0;entryX=1;entryY=0.25;entryDx=0;entryDy=0;" parent="1" source="Q5hPLZrYcaLwsk61dotQ-1544" target="Q5hPLZrYcaLwsk61dotQ-1544" edge="1">
          <mxGeometry width="50" height="50" relative="1" as="geometry">
            <mxPoint x="352" y="705" as="sourcePoint" />
            <mxPoint x="402" y="655" as="targetPoint" />
          </mxGeometry>
        </mxCell>
        <mxCell id="Q5hPLZrYcaLwsk61dotQ-1546" value="" style="endArrow=none;html=1;rounded=0;exitX=0;exitY=0.25;exitDx=0;exitDy=0;entryX=1;entryY=0.25;entryDx=0;entryDy=0;" parent="1" edge="1">
          <mxGeometry width="50" height="50" relative="1" as="geometry">
            <mxPoint x="322" y="679.88" as="sourcePoint" />
            <mxPoint x="332" y="679.88" as="targetPoint" />
          </mxGeometry>
        </mxCell>
        <mxCell id="Q5hPLZrYcaLwsk61dotQ-1547" value="" style="endArrow=none;html=1;rounded=0;exitX=0;exitY=0.25;exitDx=0;exitDy=0;entryX=1;entryY=0.25;entryDx=0;entryDy=0;" parent="1" edge="1">
          <mxGeometry width="50" height="50" relative="1" as="geometry">
            <mxPoint x="322" y="688" as="sourcePoint" />
            <mxPoint x="332" y="688" as="targetPoint" />
          </mxGeometry>
        </mxCell>
        <mxCell id="Q5hPLZrYcaLwsk61dotQ-1548" value="" style="rounded=0;whiteSpace=wrap;html=1;" parent="1" vertex="1">
          <mxGeometry x="332" y="665" width="10" height="30" as="geometry" />
        </mxCell>
        <mxCell id="Q5hPLZrYcaLwsk61dotQ-1549" value="" style="endArrow=none;html=1;rounded=0;exitX=0;exitY=0.25;exitDx=0;exitDy=0;entryX=1;entryY=0.25;entryDx=0;entryDy=0;" parent="1" source="Q5hPLZrYcaLwsk61dotQ-1548" target="Q5hPLZrYcaLwsk61dotQ-1548" edge="1">
          <mxGeometry width="50" height="50" relative="1" as="geometry">
            <mxPoint x="362" y="705" as="sourcePoint" />
            <mxPoint x="412" y="655" as="targetPoint" />
          </mxGeometry>
        </mxCell>
        <mxCell id="Q5hPLZrYcaLwsk61dotQ-1550" value="" style="endArrow=none;html=1;rounded=0;exitX=0;exitY=0.25;exitDx=0;exitDy=0;entryX=1;entryY=0.25;entryDx=0;entryDy=0;" parent="1" edge="1">
          <mxGeometry width="50" height="50" relative="1" as="geometry">
            <mxPoint x="332" y="679.88" as="sourcePoint" />
            <mxPoint x="342" y="679.88" as="targetPoint" />
          </mxGeometry>
        </mxCell>
        <mxCell id="Q5hPLZrYcaLwsk61dotQ-1551" value="" style="endArrow=none;html=1;rounded=0;exitX=0;exitY=0.25;exitDx=0;exitDy=0;entryX=1;entryY=0.25;entryDx=0;entryDy=0;" parent="1" edge="1">
          <mxGeometry width="50" height="50" relative="1" as="geometry">
            <mxPoint x="332" y="688" as="sourcePoint" />
            <mxPoint x="342" y="688" as="targetPoint" />
          </mxGeometry>
        </mxCell>
        <mxCell id="Q5hPLZrYcaLwsk61dotQ-1552" value="" style="rounded=0;whiteSpace=wrap;html=1;" parent="1" vertex="1">
          <mxGeometry x="342" y="665" width="10" height="30" as="geometry" />
        </mxCell>
        <mxCell id="Q5hPLZrYcaLwsk61dotQ-1553" value="" style="endArrow=none;html=1;rounded=0;exitX=0;exitY=0.25;exitDx=0;exitDy=0;entryX=1;entryY=0.25;entryDx=0;entryDy=0;" parent="1" source="Q5hPLZrYcaLwsk61dotQ-1552" target="Q5hPLZrYcaLwsk61dotQ-1552" edge="1">
          <mxGeometry width="50" height="50" relative="1" as="geometry">
            <mxPoint x="372" y="705" as="sourcePoint" />
            <mxPoint x="422" y="655" as="targetPoint" />
          </mxGeometry>
        </mxCell>
        <mxCell id="Q5hPLZrYcaLwsk61dotQ-1554" value="" style="endArrow=none;html=1;rounded=0;exitX=0;exitY=0.25;exitDx=0;exitDy=0;entryX=1;entryY=0.25;entryDx=0;entryDy=0;" parent="1" edge="1">
          <mxGeometry width="50" height="50" relative="1" as="geometry">
            <mxPoint x="342" y="679.88" as="sourcePoint" />
            <mxPoint x="352" y="679.88" as="targetPoint" />
          </mxGeometry>
        </mxCell>
        <mxCell id="Q5hPLZrYcaLwsk61dotQ-1555" value="" style="endArrow=none;html=1;rounded=0;exitX=0;exitY=0.25;exitDx=0;exitDy=0;entryX=1;entryY=0.25;entryDx=0;entryDy=0;" parent="1" edge="1">
          <mxGeometry width="50" height="50" relative="1" as="geometry">
            <mxPoint x="342" y="688" as="sourcePoint" />
            <mxPoint x="352" y="688" as="targetPoint" />
          </mxGeometry>
        </mxCell>
        <mxCell id="Q5hPLZrYcaLwsk61dotQ-1556" value="" style="rounded=0;whiteSpace=wrap;html=1;" parent="1" vertex="1">
          <mxGeometry x="352" y="665" width="10" height="30" as="geometry" />
        </mxCell>
        <mxCell id="Q5hPLZrYcaLwsk61dotQ-1557" value="" style="endArrow=none;html=1;rounded=0;exitX=0;exitY=0.25;exitDx=0;exitDy=0;entryX=1;entryY=0.25;entryDx=0;entryDy=0;" parent="1" source="Q5hPLZrYcaLwsk61dotQ-1556" target="Q5hPLZrYcaLwsk61dotQ-1556" edge="1">
          <mxGeometry width="50" height="50" relative="1" as="geometry">
            <mxPoint x="382" y="705" as="sourcePoint" />
            <mxPoint x="432" y="655" as="targetPoint" />
          </mxGeometry>
        </mxCell>
        <mxCell id="Q5hPLZrYcaLwsk61dotQ-1558" value="" style="endArrow=none;html=1;rounded=0;exitX=0;exitY=0.25;exitDx=0;exitDy=0;entryX=1;entryY=0.25;entryDx=0;entryDy=0;" parent="1" edge="1">
          <mxGeometry width="50" height="50" relative="1" as="geometry">
            <mxPoint x="352" y="679.88" as="sourcePoint" />
            <mxPoint x="362" y="679.88" as="targetPoint" />
          </mxGeometry>
        </mxCell>
        <mxCell id="Q5hPLZrYcaLwsk61dotQ-1559" value="" style="endArrow=none;html=1;rounded=0;exitX=0;exitY=0.25;exitDx=0;exitDy=0;entryX=1;entryY=0.25;entryDx=0;entryDy=0;" parent="1" edge="1">
          <mxGeometry width="50" height="50" relative="1" as="geometry">
            <mxPoint x="352" y="688" as="sourcePoint" />
            <mxPoint x="362" y="688" as="targetPoint" />
          </mxGeometry>
        </mxCell>
        <mxCell id="Q5hPLZrYcaLwsk61dotQ-1560" value="" style="rounded=0;whiteSpace=wrap;html=1;" parent="1" vertex="1">
          <mxGeometry x="362" y="665" width="10" height="30" as="geometry" />
        </mxCell>
        <mxCell id="Q5hPLZrYcaLwsk61dotQ-1561" value="" style="endArrow=none;html=1;rounded=0;exitX=0;exitY=0.25;exitDx=0;exitDy=0;entryX=1;entryY=0.25;entryDx=0;entryDy=0;" parent="1" source="Q5hPLZrYcaLwsk61dotQ-1560" target="Q5hPLZrYcaLwsk61dotQ-1560" edge="1">
          <mxGeometry width="50" height="50" relative="1" as="geometry">
            <mxPoint x="392" y="705" as="sourcePoint" />
            <mxPoint x="442" y="655" as="targetPoint" />
          </mxGeometry>
        </mxCell>
        <mxCell id="Q5hPLZrYcaLwsk61dotQ-1562" value="" style="endArrow=none;html=1;rounded=0;exitX=0;exitY=0.25;exitDx=0;exitDy=0;entryX=1;entryY=0.25;entryDx=0;entryDy=0;" parent="1" edge="1">
          <mxGeometry width="50" height="50" relative="1" as="geometry">
            <mxPoint x="362" y="679.88" as="sourcePoint" />
            <mxPoint x="372" y="679.88" as="targetPoint" />
          </mxGeometry>
        </mxCell>
        <mxCell id="Q5hPLZrYcaLwsk61dotQ-1563" value="" style="endArrow=none;html=1;rounded=0;exitX=0;exitY=0.25;exitDx=0;exitDy=0;entryX=1;entryY=0.25;entryDx=0;entryDy=0;" parent="1" edge="1">
          <mxGeometry width="50" height="50" relative="1" as="geometry">
            <mxPoint x="362" y="688" as="sourcePoint" />
            <mxPoint x="372" y="688" as="targetPoint" />
          </mxGeometry>
        </mxCell>
        <mxCell id="Q5hPLZrYcaLwsk61dotQ-1564" value="" style="rounded=0;whiteSpace=wrap;html=1;" parent="1" vertex="1">
          <mxGeometry x="372" y="665" width="10" height="30" as="geometry" />
        </mxCell>
        <mxCell id="Q5hPLZrYcaLwsk61dotQ-1565" value="" style="endArrow=none;html=1;rounded=0;exitX=0;exitY=0.25;exitDx=0;exitDy=0;entryX=1;entryY=0.25;entryDx=0;entryDy=0;" parent="1" source="Q5hPLZrYcaLwsk61dotQ-1564" target="Q5hPLZrYcaLwsk61dotQ-1564" edge="1">
          <mxGeometry width="50" height="50" relative="1" as="geometry">
            <mxPoint x="402" y="705" as="sourcePoint" />
            <mxPoint x="452" y="655" as="targetPoint" />
          </mxGeometry>
        </mxCell>
        <mxCell id="Q5hPLZrYcaLwsk61dotQ-1566" value="" style="endArrow=none;html=1;rounded=0;exitX=0;exitY=0.25;exitDx=0;exitDy=0;entryX=1;entryY=0.25;entryDx=0;entryDy=0;" parent="1" edge="1">
          <mxGeometry width="50" height="50" relative="1" as="geometry">
            <mxPoint x="372" y="679.88" as="sourcePoint" />
            <mxPoint x="382" y="679.88" as="targetPoint" />
          </mxGeometry>
        </mxCell>
        <mxCell id="Q5hPLZrYcaLwsk61dotQ-1567" value="" style="endArrow=none;html=1;rounded=0;exitX=0;exitY=0.25;exitDx=0;exitDy=0;entryX=1;entryY=0.25;entryDx=0;entryDy=0;" parent="1" edge="1">
          <mxGeometry width="50" height="50" relative="1" as="geometry">
            <mxPoint x="372" y="688" as="sourcePoint" />
            <mxPoint x="382" y="688" as="targetPoint" />
          </mxGeometry>
        </mxCell>
        <mxCell id="Q5hPLZrYcaLwsk61dotQ-1568" value="" style="rounded=0;whiteSpace=wrap;html=1;" parent="1" vertex="1">
          <mxGeometry x="402" y="665" width="10" height="30" as="geometry" />
        </mxCell>
        <mxCell id="Q5hPLZrYcaLwsk61dotQ-1569" value="" style="endArrow=none;html=1;rounded=0;exitX=0;exitY=0.25;exitDx=0;exitDy=0;entryX=1;entryY=0.25;entryDx=0;entryDy=0;" parent="1" source="Q5hPLZrYcaLwsk61dotQ-1568" target="Q5hPLZrYcaLwsk61dotQ-1568" edge="1">
          <mxGeometry width="50" height="50" relative="1" as="geometry">
            <mxPoint x="432" y="705" as="sourcePoint" />
            <mxPoint x="482" y="655" as="targetPoint" />
          </mxGeometry>
        </mxCell>
        <mxCell id="Q5hPLZrYcaLwsk61dotQ-1570" value="" style="endArrow=none;html=1;rounded=0;exitX=0;exitY=0.25;exitDx=0;exitDy=0;entryX=1;entryY=0.25;entryDx=0;entryDy=0;" parent="1" edge="1">
          <mxGeometry width="50" height="50" relative="1" as="geometry">
            <mxPoint x="402" y="679.88" as="sourcePoint" />
            <mxPoint x="412" y="679.88" as="targetPoint" />
          </mxGeometry>
        </mxCell>
        <mxCell id="Q5hPLZrYcaLwsk61dotQ-1571" value="" style="endArrow=none;html=1;rounded=0;exitX=0;exitY=0.25;exitDx=0;exitDy=0;entryX=1;entryY=0.25;entryDx=0;entryDy=0;" parent="1" edge="1">
          <mxGeometry width="50" height="50" relative="1" as="geometry">
            <mxPoint x="402" y="688" as="sourcePoint" />
            <mxPoint x="412" y="688" as="targetPoint" />
          </mxGeometry>
        </mxCell>
        <mxCell id="Q5hPLZrYcaLwsk61dotQ-1572" value="" style="rounded=0;whiteSpace=wrap;html=1;" parent="1" vertex="1">
          <mxGeometry x="412" y="665" width="10" height="30" as="geometry" />
        </mxCell>
        <mxCell id="Q5hPLZrYcaLwsk61dotQ-1573" value="" style="endArrow=none;html=1;rounded=0;exitX=0;exitY=0.25;exitDx=0;exitDy=0;entryX=1;entryY=0.25;entryDx=0;entryDy=0;" parent="1" source="Q5hPLZrYcaLwsk61dotQ-1572" target="Q5hPLZrYcaLwsk61dotQ-1572" edge="1">
          <mxGeometry width="50" height="50" relative="1" as="geometry">
            <mxPoint x="442" y="705" as="sourcePoint" />
            <mxPoint x="492" y="655" as="targetPoint" />
          </mxGeometry>
        </mxCell>
        <mxCell id="Q5hPLZrYcaLwsk61dotQ-1574" value="" style="endArrow=none;html=1;rounded=0;exitX=0;exitY=0.25;exitDx=0;exitDy=0;entryX=1;entryY=0.25;entryDx=0;entryDy=0;" parent="1" edge="1">
          <mxGeometry width="50" height="50" relative="1" as="geometry">
            <mxPoint x="412" y="679.88" as="sourcePoint" />
            <mxPoint x="422" y="679.88" as="targetPoint" />
          </mxGeometry>
        </mxCell>
        <mxCell id="Q5hPLZrYcaLwsk61dotQ-1575" value="" style="endArrow=none;html=1;rounded=0;exitX=0;exitY=0.25;exitDx=0;exitDy=0;entryX=1;entryY=0.25;entryDx=0;entryDy=0;" parent="1" edge="1">
          <mxGeometry width="50" height="50" relative="1" as="geometry">
            <mxPoint x="412" y="688" as="sourcePoint" />
            <mxPoint x="422" y="688" as="targetPoint" />
          </mxGeometry>
        </mxCell>
        <mxCell id="Q5hPLZrYcaLwsk61dotQ-1576" value="" style="rounded=0;whiteSpace=wrap;html=1;" parent="1" vertex="1">
          <mxGeometry x="422" y="665" width="10" height="30" as="geometry" />
        </mxCell>
        <mxCell id="Q5hPLZrYcaLwsk61dotQ-1577" value="" style="endArrow=none;html=1;rounded=0;exitX=0;exitY=0.25;exitDx=0;exitDy=0;entryX=1;entryY=0.25;entryDx=0;entryDy=0;" parent="1" source="Q5hPLZrYcaLwsk61dotQ-1576" target="Q5hPLZrYcaLwsk61dotQ-1576" edge="1">
          <mxGeometry width="50" height="50" relative="1" as="geometry">
            <mxPoint x="452" y="705" as="sourcePoint" />
            <mxPoint x="502" y="655" as="targetPoint" />
          </mxGeometry>
        </mxCell>
        <mxCell id="Q5hPLZrYcaLwsk61dotQ-1578" value="" style="endArrow=none;html=1;rounded=0;exitX=0;exitY=0.25;exitDx=0;exitDy=0;entryX=1;entryY=0.25;entryDx=0;entryDy=0;" parent="1" edge="1">
          <mxGeometry width="50" height="50" relative="1" as="geometry">
            <mxPoint x="422" y="679.88" as="sourcePoint" />
            <mxPoint x="432" y="679.88" as="targetPoint" />
          </mxGeometry>
        </mxCell>
        <mxCell id="Q5hPLZrYcaLwsk61dotQ-1579" value="" style="endArrow=none;html=1;rounded=0;exitX=0;exitY=0.25;exitDx=0;exitDy=0;entryX=1;entryY=0.25;entryDx=0;entryDy=0;" parent="1" edge="1">
          <mxGeometry width="50" height="50" relative="1" as="geometry">
            <mxPoint x="422" y="688" as="sourcePoint" />
            <mxPoint x="432" y="688" as="targetPoint" />
          </mxGeometry>
        </mxCell>
        <mxCell id="Q5hPLZrYcaLwsk61dotQ-1580" value="" style="rounded=0;whiteSpace=wrap;html=1;" parent="1" vertex="1">
          <mxGeometry x="432" y="665" width="10" height="30" as="geometry" />
        </mxCell>
        <mxCell id="Q5hPLZrYcaLwsk61dotQ-1581" value="" style="endArrow=none;html=1;rounded=0;exitX=0;exitY=0.25;exitDx=0;exitDy=0;entryX=1;entryY=0.25;entryDx=0;entryDy=0;" parent="1" source="Q5hPLZrYcaLwsk61dotQ-1580" target="Q5hPLZrYcaLwsk61dotQ-1580" edge="1">
          <mxGeometry width="50" height="50" relative="1" as="geometry">
            <mxPoint x="462" y="705" as="sourcePoint" />
            <mxPoint x="512" y="655" as="targetPoint" />
          </mxGeometry>
        </mxCell>
        <mxCell id="Q5hPLZrYcaLwsk61dotQ-1582" value="" style="endArrow=none;html=1;rounded=0;exitX=0;exitY=0.25;exitDx=0;exitDy=0;entryX=1;entryY=0.25;entryDx=0;entryDy=0;" parent="1" edge="1">
          <mxGeometry width="50" height="50" relative="1" as="geometry">
            <mxPoint x="432" y="679.88" as="sourcePoint" />
            <mxPoint x="442" y="679.88" as="targetPoint" />
          </mxGeometry>
        </mxCell>
        <mxCell id="Q5hPLZrYcaLwsk61dotQ-1583" value="" style="endArrow=none;html=1;rounded=0;exitX=0;exitY=0.25;exitDx=0;exitDy=0;entryX=1;entryY=0.25;entryDx=0;entryDy=0;" parent="1" edge="1">
          <mxGeometry width="50" height="50" relative="1" as="geometry">
            <mxPoint x="432" y="688" as="sourcePoint" />
            <mxPoint x="442" y="688" as="targetPoint" />
          </mxGeometry>
        </mxCell>
        <mxCell id="Q5hPLZrYcaLwsk61dotQ-1584" value="" style="rounded=0;whiteSpace=wrap;html=1;" parent="1" vertex="1">
          <mxGeometry x="442" y="665" width="10" height="30" as="geometry" />
        </mxCell>
        <mxCell id="Q5hPLZrYcaLwsk61dotQ-1585" value="" style="endArrow=none;html=1;rounded=0;exitX=0;exitY=0.25;exitDx=0;exitDy=0;entryX=1;entryY=0.25;entryDx=0;entryDy=0;" parent="1" source="Q5hPLZrYcaLwsk61dotQ-1584" target="Q5hPLZrYcaLwsk61dotQ-1584" edge="1">
          <mxGeometry width="50" height="50" relative="1" as="geometry">
            <mxPoint x="472" y="705" as="sourcePoint" />
            <mxPoint x="522" y="655" as="targetPoint" />
          </mxGeometry>
        </mxCell>
        <mxCell id="Q5hPLZrYcaLwsk61dotQ-1586" value="" style="endArrow=none;html=1;rounded=0;exitX=0;exitY=0.25;exitDx=0;exitDy=0;entryX=1;entryY=0.25;entryDx=0;entryDy=0;" parent="1" edge="1">
          <mxGeometry width="50" height="50" relative="1" as="geometry">
            <mxPoint x="442" y="679.88" as="sourcePoint" />
            <mxPoint x="452" y="679.88" as="targetPoint" />
          </mxGeometry>
        </mxCell>
        <mxCell id="Q5hPLZrYcaLwsk61dotQ-1587" value="" style="endArrow=none;html=1;rounded=0;exitX=0;exitY=0.25;exitDx=0;exitDy=0;entryX=1;entryY=0.25;entryDx=0;entryDy=0;" parent="1" edge="1">
          <mxGeometry width="50" height="50" relative="1" as="geometry">
            <mxPoint x="442" y="688" as="sourcePoint" />
            <mxPoint x="452" y="688" as="targetPoint" />
          </mxGeometry>
        </mxCell>
        <mxCell id="Q5hPLZrYcaLwsk61dotQ-1588" value="" style="rounded=0;whiteSpace=wrap;html=1;" parent="1" vertex="1">
          <mxGeometry x="452" y="665" width="10" height="30" as="geometry" />
        </mxCell>
        <mxCell id="Q5hPLZrYcaLwsk61dotQ-1589" value="" style="endArrow=none;html=1;rounded=0;exitX=0;exitY=0.25;exitDx=0;exitDy=0;entryX=1;entryY=0.25;entryDx=0;entryDy=0;" parent="1" source="Q5hPLZrYcaLwsk61dotQ-1588" target="Q5hPLZrYcaLwsk61dotQ-1588" edge="1">
          <mxGeometry width="50" height="50" relative="1" as="geometry">
            <mxPoint x="482" y="705" as="sourcePoint" />
            <mxPoint x="532" y="655" as="targetPoint" />
          </mxGeometry>
        </mxCell>
        <mxCell id="Q5hPLZrYcaLwsk61dotQ-1590" value="" style="endArrow=none;html=1;rounded=0;exitX=0;exitY=0.25;exitDx=0;exitDy=0;entryX=1;entryY=0.25;entryDx=0;entryDy=0;" parent="1" edge="1">
          <mxGeometry width="50" height="50" relative="1" as="geometry">
            <mxPoint x="452" y="679.88" as="sourcePoint" />
            <mxPoint x="462" y="679.88" as="targetPoint" />
          </mxGeometry>
        </mxCell>
        <mxCell id="Q5hPLZrYcaLwsk61dotQ-1591" value="" style="endArrow=none;html=1;rounded=0;exitX=0;exitY=0.25;exitDx=0;exitDy=0;entryX=1;entryY=0.25;entryDx=0;entryDy=0;" parent="1" edge="1">
          <mxGeometry width="50" height="50" relative="1" as="geometry">
            <mxPoint x="452" y="688" as="sourcePoint" />
            <mxPoint x="462" y="688" as="targetPoint" />
          </mxGeometry>
        </mxCell>
        <mxCell id="Q5hPLZrYcaLwsk61dotQ-1592" value="" style="rounded=0;whiteSpace=wrap;html=1;" parent="1" vertex="1">
          <mxGeometry x="462" y="665" width="10" height="30" as="geometry" />
        </mxCell>
        <mxCell id="Q5hPLZrYcaLwsk61dotQ-1593" value="" style="endArrow=none;html=1;rounded=0;exitX=0;exitY=0.25;exitDx=0;exitDy=0;entryX=1;entryY=0.25;entryDx=0;entryDy=0;" parent="1" source="Q5hPLZrYcaLwsk61dotQ-1592" target="Q5hPLZrYcaLwsk61dotQ-1592" edge="1">
          <mxGeometry width="50" height="50" relative="1" as="geometry">
            <mxPoint x="492" y="705" as="sourcePoint" />
            <mxPoint x="542" y="655" as="targetPoint" />
          </mxGeometry>
        </mxCell>
        <mxCell id="Q5hPLZrYcaLwsk61dotQ-1594" value="" style="endArrow=none;html=1;rounded=0;exitX=0;exitY=0.25;exitDx=0;exitDy=0;entryX=1;entryY=0.25;entryDx=0;entryDy=0;" parent="1" edge="1">
          <mxGeometry width="50" height="50" relative="1" as="geometry">
            <mxPoint x="462" y="679.88" as="sourcePoint" />
            <mxPoint x="472" y="679.88" as="targetPoint" />
          </mxGeometry>
        </mxCell>
        <mxCell id="Q5hPLZrYcaLwsk61dotQ-1595" value="" style="endArrow=none;html=1;rounded=0;exitX=0;exitY=0.25;exitDx=0;exitDy=0;entryX=1;entryY=0.25;entryDx=0;entryDy=0;" parent="1" edge="1">
          <mxGeometry width="50" height="50" relative="1" as="geometry">
            <mxPoint x="462" y="688" as="sourcePoint" />
            <mxPoint x="472" y="688" as="targetPoint" />
          </mxGeometry>
        </mxCell>
        <mxCell id="Q5hPLZrYcaLwsk61dotQ-1596" value="" style="rounded=0;whiteSpace=wrap;html=1;" parent="1" vertex="1">
          <mxGeometry x="472" y="665" width="10" height="30" as="geometry" />
        </mxCell>
        <mxCell id="Q5hPLZrYcaLwsk61dotQ-1597" value="" style="endArrow=none;html=1;rounded=0;exitX=0;exitY=0.25;exitDx=0;exitDy=0;entryX=1;entryY=0.25;entryDx=0;entryDy=0;" parent="1" source="Q5hPLZrYcaLwsk61dotQ-1596" target="Q5hPLZrYcaLwsk61dotQ-1596" edge="1">
          <mxGeometry width="50" height="50" relative="1" as="geometry">
            <mxPoint x="502" y="705" as="sourcePoint" />
            <mxPoint x="552" y="655" as="targetPoint" />
          </mxGeometry>
        </mxCell>
        <mxCell id="Q5hPLZrYcaLwsk61dotQ-1598" value="" style="endArrow=none;html=1;rounded=0;exitX=0;exitY=0.25;exitDx=0;exitDy=0;entryX=1;entryY=0.25;entryDx=0;entryDy=0;" parent="1" edge="1">
          <mxGeometry width="50" height="50" relative="1" as="geometry">
            <mxPoint x="472" y="679.88" as="sourcePoint" />
            <mxPoint x="482" y="679.88" as="targetPoint" />
          </mxGeometry>
        </mxCell>
        <mxCell id="Q5hPLZrYcaLwsk61dotQ-1599" value="" style="endArrow=none;html=1;rounded=0;exitX=0;exitY=0.25;exitDx=0;exitDy=0;entryX=1;entryY=0.25;entryDx=0;entryDy=0;" parent="1" edge="1">
          <mxGeometry width="50" height="50" relative="1" as="geometry">
            <mxPoint x="472" y="688" as="sourcePoint" />
            <mxPoint x="482" y="688" as="targetPoint" />
          </mxGeometry>
        </mxCell>
        <mxCell id="Q5hPLZrYcaLwsk61dotQ-1836" value="TÒA NHÀ N" style="text;html=1;align=center;verticalAlign=middle;whiteSpace=wrap;rounded=0;" parent="1" vertex="1">
          <mxGeometry x="150.5" y="110" width="89.5" height="30" as="geometry" />
        </mxCell>
        <mxCell id="Q5hPLZrYcaLwsk61dotQ-1837" value="TÒA NHÀ P" style="text;html=1;align=center;verticalAlign=middle;whiteSpace=wrap;rounded=0;" parent="1" vertex="1">
          <mxGeometry x="561" y="360" width="10.5" height="70" as="geometry" />
        </mxCell>
        <mxCell id="Q5hPLZrYcaLwsk61dotQ-1838" value="KHU NHÀ Q" style="text;html=1;align=center;verticalAlign=middle;whiteSpace=wrap;rounded=0;" parent="1" vertex="1">
          <mxGeometry x="340" y="600" width="100" height="70" as="geometry" />
        </mxCell>
        <mxCell id="0e8y201uo-q_4VDphdHA-2" value="" style="rounded=0;whiteSpace=wrap;html=1;" vertex="1" parent="1">
          <mxGeometry x="540" y="100" width="100" height="50" as="geometry" />
        </mxCell>
        <mxCell id="0e8y201uo-q_4VDphdHA-3" value="" style="rounded=0;whiteSpace=wrap;html=1;" vertex="1" parent="1">
          <mxGeometry x="550" y="110" width="10" height="30" as="geometry" />
        </mxCell>
        <mxCell id="0e8y201uo-q_4VDphdHA-4" value="" style="endArrow=none;html=1;rounded=0;exitX=0;exitY=0.25;exitDx=0;exitDy=0;entryX=1;entryY=0.25;entryDx=0;entryDy=0;" edge="1" parent="1" source="0e8y201uo-q_4VDphdHA-3" target="0e8y201uo-q_4VDphdHA-3">
          <mxGeometry width="50" height="50" relative="1" as="geometry">
            <mxPoint x="580" y="150" as="sourcePoint" />
            <mxPoint x="630" y="100" as="targetPoint" />
          </mxGeometry>
        </mxCell>
        <mxCell id="0e8y201uo-q_4VDphdHA-5" value="" style="endArrow=none;html=1;rounded=0;exitX=0;exitY=0.25;exitDx=0;exitDy=0;entryX=1;entryY=0.25;entryDx=0;entryDy=0;" edge="1" parent="1">
          <mxGeometry width="50" height="50" relative="1" as="geometry">
            <mxPoint x="550" y="124.88" as="sourcePoint" />
            <mxPoint x="560" y="124.88" as="targetPoint" />
          </mxGeometry>
        </mxCell>
        <mxCell id="0e8y201uo-q_4VDphdHA-6" value="" style="endArrow=none;html=1;rounded=0;exitX=0;exitY=0.25;exitDx=0;exitDy=0;entryX=1;entryY=0.25;entryDx=0;entryDy=0;" edge="1" parent="1">
          <mxGeometry width="50" height="50" relative="1" as="geometry">
            <mxPoint x="550" y="133" as="sourcePoint" />
            <mxPoint x="560" y="133" as="targetPoint" />
          </mxGeometry>
        </mxCell>
        <mxCell id="0e8y201uo-q_4VDphdHA-7" value="" style="rounded=0;whiteSpace=wrap;html=1;" vertex="1" parent="1">
          <mxGeometry x="560" y="110" width="10" height="30" as="geometry" />
        </mxCell>
        <mxCell id="0e8y201uo-q_4VDphdHA-8" value="" style="endArrow=none;html=1;rounded=0;exitX=0;exitY=0.25;exitDx=0;exitDy=0;entryX=1;entryY=0.25;entryDx=0;entryDy=0;" edge="1" parent="1" source="0e8y201uo-q_4VDphdHA-7" target="0e8y201uo-q_4VDphdHA-7">
          <mxGeometry width="50" height="50" relative="1" as="geometry">
            <mxPoint x="590" y="150" as="sourcePoint" />
            <mxPoint x="640" y="100" as="targetPoint" />
          </mxGeometry>
        </mxCell>
        <mxCell id="0e8y201uo-q_4VDphdHA-9" value="" style="endArrow=none;html=1;rounded=0;exitX=0;exitY=0.25;exitDx=0;exitDy=0;entryX=1;entryY=0.25;entryDx=0;entryDy=0;" edge="1" parent="1">
          <mxGeometry width="50" height="50" relative="1" as="geometry">
            <mxPoint x="560" y="124.88" as="sourcePoint" />
            <mxPoint x="570" y="124.88" as="targetPoint" />
          </mxGeometry>
        </mxCell>
        <mxCell id="0e8y201uo-q_4VDphdHA-10" value="" style="endArrow=none;html=1;rounded=0;exitX=0;exitY=0.25;exitDx=0;exitDy=0;entryX=1;entryY=0.25;entryDx=0;entryDy=0;" edge="1" parent="1">
          <mxGeometry width="50" height="50" relative="1" as="geometry">
            <mxPoint x="560" y="133" as="sourcePoint" />
            <mxPoint x="570" y="133" as="targetPoint" />
          </mxGeometry>
        </mxCell>
        <mxCell id="0e8y201uo-q_4VDphdHA-11" value="" style="rounded=0;whiteSpace=wrap;html=1;" vertex="1" parent="1">
          <mxGeometry x="570" y="110" width="10" height="30" as="geometry" />
        </mxCell>
        <mxCell id="0e8y201uo-q_4VDphdHA-12" value="" style="endArrow=none;html=1;rounded=0;exitX=0;exitY=0.25;exitDx=0;exitDy=0;entryX=1;entryY=0.25;entryDx=0;entryDy=0;" edge="1" parent="1" source="0e8y201uo-q_4VDphdHA-11" target="0e8y201uo-q_4VDphdHA-11">
          <mxGeometry width="50" height="50" relative="1" as="geometry">
            <mxPoint x="600" y="150" as="sourcePoint" />
            <mxPoint x="650" y="100" as="targetPoint" />
          </mxGeometry>
        </mxCell>
        <mxCell id="0e8y201uo-q_4VDphdHA-13" value="" style="endArrow=none;html=1;rounded=0;exitX=0;exitY=0.25;exitDx=0;exitDy=0;entryX=1;entryY=0.25;entryDx=0;entryDy=0;" edge="1" parent="1">
          <mxGeometry width="50" height="50" relative="1" as="geometry">
            <mxPoint x="570" y="124.88" as="sourcePoint" />
            <mxPoint x="580" y="124.88" as="targetPoint" />
          </mxGeometry>
        </mxCell>
        <mxCell id="0e8y201uo-q_4VDphdHA-14" value="" style="endArrow=none;html=1;rounded=0;exitX=0;exitY=0.25;exitDx=0;exitDy=0;entryX=1;entryY=0.25;entryDx=0;entryDy=0;" edge="1" parent="1">
          <mxGeometry width="50" height="50" relative="1" as="geometry">
            <mxPoint x="570" y="133" as="sourcePoint" />
            <mxPoint x="580" y="133" as="targetPoint" />
          </mxGeometry>
        </mxCell>
        <mxCell id="0e8y201uo-q_4VDphdHA-15" value="" style="rounded=0;whiteSpace=wrap;html=1;" vertex="1" parent="1">
          <mxGeometry x="580" y="110" width="10" height="30" as="geometry" />
        </mxCell>
        <mxCell id="0e8y201uo-q_4VDphdHA-16" value="" style="endArrow=none;html=1;rounded=0;exitX=0;exitY=0.25;exitDx=0;exitDy=0;entryX=1;entryY=0.25;entryDx=0;entryDy=0;" edge="1" parent="1" source="0e8y201uo-q_4VDphdHA-15" target="0e8y201uo-q_4VDphdHA-15">
          <mxGeometry width="50" height="50" relative="1" as="geometry">
            <mxPoint x="610" y="150" as="sourcePoint" />
            <mxPoint x="660" y="100" as="targetPoint" />
          </mxGeometry>
        </mxCell>
        <mxCell id="0e8y201uo-q_4VDphdHA-17" value="" style="endArrow=none;html=1;rounded=0;exitX=0;exitY=0.25;exitDx=0;exitDy=0;entryX=1;entryY=0.25;entryDx=0;entryDy=0;" edge="1" parent="1">
          <mxGeometry width="50" height="50" relative="1" as="geometry">
            <mxPoint x="580" y="124.88" as="sourcePoint" />
            <mxPoint x="590" y="124.88" as="targetPoint" />
          </mxGeometry>
        </mxCell>
        <mxCell id="0e8y201uo-q_4VDphdHA-18" value="" style="endArrow=none;html=1;rounded=0;exitX=0;exitY=0.25;exitDx=0;exitDy=0;entryX=1;entryY=0.25;entryDx=0;entryDy=0;" edge="1" parent="1">
          <mxGeometry width="50" height="50" relative="1" as="geometry">
            <mxPoint x="580" y="133" as="sourcePoint" />
            <mxPoint x="590" y="133" as="targetPoint" />
          </mxGeometry>
        </mxCell>
        <mxCell id="0e8y201uo-q_4VDphdHA-19" value="" style="rounded=0;whiteSpace=wrap;html=1;" vertex="1" parent="1">
          <mxGeometry x="590" y="110" width="10" height="30" as="geometry" />
        </mxCell>
        <mxCell id="0e8y201uo-q_4VDphdHA-20" value="" style="endArrow=none;html=1;rounded=0;exitX=0;exitY=0.25;exitDx=0;exitDy=0;entryX=1;entryY=0.25;entryDx=0;entryDy=0;" edge="1" parent="1" source="0e8y201uo-q_4VDphdHA-19" target="0e8y201uo-q_4VDphdHA-19">
          <mxGeometry width="50" height="50" relative="1" as="geometry">
            <mxPoint x="620" y="150" as="sourcePoint" />
            <mxPoint x="670" y="100" as="targetPoint" />
          </mxGeometry>
        </mxCell>
        <mxCell id="0e8y201uo-q_4VDphdHA-21" value="" style="endArrow=none;html=1;rounded=0;exitX=0;exitY=0.25;exitDx=0;exitDy=0;entryX=1;entryY=0.25;entryDx=0;entryDy=0;" edge="1" parent="1">
          <mxGeometry width="50" height="50" relative="1" as="geometry">
            <mxPoint x="590" y="124.88" as="sourcePoint" />
            <mxPoint x="600" y="124.88" as="targetPoint" />
          </mxGeometry>
        </mxCell>
        <mxCell id="0e8y201uo-q_4VDphdHA-22" value="" style="endArrow=none;html=1;rounded=0;exitX=0;exitY=0.25;exitDx=0;exitDy=0;entryX=1;entryY=0.25;entryDx=0;entryDy=0;" edge="1" parent="1">
          <mxGeometry width="50" height="50" relative="1" as="geometry">
            <mxPoint x="590" y="133" as="sourcePoint" />
            <mxPoint x="600" y="133" as="targetPoint" />
          </mxGeometry>
        </mxCell>
        <mxCell id="0e8y201uo-q_4VDphdHA-23" value="" style="rounded=0;whiteSpace=wrap;html=1;" vertex="1" parent="1">
          <mxGeometry x="600" y="110" width="10" height="30" as="geometry" />
        </mxCell>
        <mxCell id="0e8y201uo-q_4VDphdHA-24" value="" style="endArrow=none;html=1;rounded=0;exitX=0;exitY=0.25;exitDx=0;exitDy=0;entryX=1;entryY=0.25;entryDx=0;entryDy=0;" edge="1" parent="1" source="0e8y201uo-q_4VDphdHA-23" target="0e8y201uo-q_4VDphdHA-23">
          <mxGeometry width="50" height="50" relative="1" as="geometry">
            <mxPoint x="630" y="150" as="sourcePoint" />
            <mxPoint x="680" y="100" as="targetPoint" />
          </mxGeometry>
        </mxCell>
        <mxCell id="0e8y201uo-q_4VDphdHA-25" value="" style="endArrow=none;html=1;rounded=0;exitX=0;exitY=0.25;exitDx=0;exitDy=0;entryX=1;entryY=0.25;entryDx=0;entryDy=0;" edge="1" parent="1">
          <mxGeometry width="50" height="50" relative="1" as="geometry">
            <mxPoint x="600" y="124.88" as="sourcePoint" />
            <mxPoint x="610" y="124.88" as="targetPoint" />
          </mxGeometry>
        </mxCell>
        <mxCell id="0e8y201uo-q_4VDphdHA-26" value="" style="endArrow=none;html=1;rounded=0;exitX=0;exitY=0.25;exitDx=0;exitDy=0;entryX=1;entryY=0.25;entryDx=0;entryDy=0;" edge="1" parent="1">
          <mxGeometry width="50" height="50" relative="1" as="geometry">
            <mxPoint x="600" y="133" as="sourcePoint" />
            <mxPoint x="610" y="133" as="targetPoint" />
          </mxGeometry>
        </mxCell>
        <mxCell id="0e8y201uo-q_4VDphdHA-27" value="" style="rounded=0;whiteSpace=wrap;html=1;" vertex="1" parent="1">
          <mxGeometry x="610" y="110" width="10" height="30" as="geometry" />
        </mxCell>
        <mxCell id="0e8y201uo-q_4VDphdHA-28" value="" style="endArrow=none;html=1;rounded=0;exitX=0;exitY=0.25;exitDx=0;exitDy=0;entryX=1;entryY=0.25;entryDx=0;entryDy=0;" edge="1" parent="1" source="0e8y201uo-q_4VDphdHA-27" target="0e8y201uo-q_4VDphdHA-27">
          <mxGeometry width="50" height="50" relative="1" as="geometry">
            <mxPoint x="640" y="150" as="sourcePoint" />
            <mxPoint x="690" y="100" as="targetPoint" />
          </mxGeometry>
        </mxCell>
        <mxCell id="0e8y201uo-q_4VDphdHA-29" value="" style="endArrow=none;html=1;rounded=0;exitX=0;exitY=0.25;exitDx=0;exitDy=0;entryX=1;entryY=0.25;entryDx=0;entryDy=0;" edge="1" parent="1">
          <mxGeometry width="50" height="50" relative="1" as="geometry">
            <mxPoint x="610" y="124.88" as="sourcePoint" />
            <mxPoint x="620" y="124.88" as="targetPoint" />
          </mxGeometry>
        </mxCell>
        <mxCell id="0e8y201uo-q_4VDphdHA-30" value="" style="endArrow=none;html=1;rounded=0;exitX=0;exitY=0.25;exitDx=0;exitDy=0;entryX=1;entryY=0.25;entryDx=0;entryDy=0;" edge="1" parent="1">
          <mxGeometry width="50" height="50" relative="1" as="geometry">
            <mxPoint x="610" y="133" as="sourcePoint" />
            <mxPoint x="620" y="133" as="targetPoint" />
          </mxGeometry>
        </mxCell>
        <mxCell id="0e8y201uo-q_4VDphdHA-31" value="" style="rounded=0;whiteSpace=wrap;html=1;" vertex="1" parent="1">
          <mxGeometry x="620" y="110" width="10" height="30" as="geometry" />
        </mxCell>
        <mxCell id="0e8y201uo-q_4VDphdHA-32" value="" style="endArrow=none;html=1;rounded=0;exitX=0;exitY=0.25;exitDx=0;exitDy=0;entryX=1;entryY=0.25;entryDx=0;entryDy=0;" edge="1" parent="1" source="0e8y201uo-q_4VDphdHA-31" target="0e8y201uo-q_4VDphdHA-31">
          <mxGeometry width="50" height="50" relative="1" as="geometry">
            <mxPoint x="650" y="150" as="sourcePoint" />
            <mxPoint x="700" y="100" as="targetPoint" />
          </mxGeometry>
        </mxCell>
        <mxCell id="0e8y201uo-q_4VDphdHA-33" value="" style="endArrow=none;html=1;rounded=0;exitX=0;exitY=0.25;exitDx=0;exitDy=0;entryX=1;entryY=0.25;entryDx=0;entryDy=0;" edge="1" parent="1">
          <mxGeometry width="50" height="50" relative="1" as="geometry">
            <mxPoint x="620" y="124.88" as="sourcePoint" />
            <mxPoint x="630" y="124.88" as="targetPoint" />
          </mxGeometry>
        </mxCell>
        <mxCell id="0e8y201uo-q_4VDphdHA-34" value="" style="endArrow=none;html=1;rounded=0;exitX=0;exitY=0.25;exitDx=0;exitDy=0;entryX=1;entryY=0.25;entryDx=0;entryDy=0;" edge="1" parent="1">
          <mxGeometry width="50" height="50" relative="1" as="geometry">
            <mxPoint x="620" y="133" as="sourcePoint" />
            <mxPoint x="630" y="133" as="targetPoint" />
          </mxGeometry>
        </mxCell>
        <mxCell id="0e8y201uo-q_4VDphdHA-35" value="" style="rounded=0;whiteSpace=wrap;html=1;direction=south;" vertex="1" parent="1">
          <mxGeometry x="582" y="570" width="58" height="80" as="geometry" />
        </mxCell>
        <mxCell id="0e8y201uo-q_4VDphdHA-36" value="" style="rounded=0;whiteSpace=wrap;html=1;" vertex="1" parent="1">
          <mxGeometry x="591" y="580" width="10" height="30" as="geometry" />
        </mxCell>
        <mxCell id="0e8y201uo-q_4VDphdHA-37" value="" style="endArrow=none;html=1;rounded=0;exitX=0;exitY=0.25;exitDx=0;exitDy=0;entryX=1;entryY=0.25;entryDx=0;entryDy=0;" edge="1" parent="1" source="0e8y201uo-q_4VDphdHA-36" target="0e8y201uo-q_4VDphdHA-36">
          <mxGeometry width="50" height="50" relative="1" as="geometry">
            <mxPoint x="621" y="620" as="sourcePoint" />
            <mxPoint x="671" y="570" as="targetPoint" />
          </mxGeometry>
        </mxCell>
        <mxCell id="0e8y201uo-q_4VDphdHA-38" value="" style="endArrow=none;html=1;rounded=0;exitX=0;exitY=0.25;exitDx=0;exitDy=0;entryX=1;entryY=0.25;entryDx=0;entryDy=0;" edge="1" parent="1">
          <mxGeometry width="50" height="50" relative="1" as="geometry">
            <mxPoint x="591" y="594.88" as="sourcePoint" />
            <mxPoint x="601" y="594.88" as="targetPoint" />
          </mxGeometry>
        </mxCell>
        <mxCell id="0e8y201uo-q_4VDphdHA-39" value="" style="endArrow=none;html=1;rounded=0;exitX=0;exitY=0.25;exitDx=0;exitDy=0;entryX=1;entryY=0.25;entryDx=0;entryDy=0;" edge="1" parent="1">
          <mxGeometry width="50" height="50" relative="1" as="geometry">
            <mxPoint x="591" y="603" as="sourcePoint" />
            <mxPoint x="601" y="603" as="targetPoint" />
          </mxGeometry>
        </mxCell>
        <mxCell id="0e8y201uo-q_4VDphdHA-40" value="" style="rounded=0;whiteSpace=wrap;html=1;" vertex="1" parent="1">
          <mxGeometry x="601" y="580" width="10" height="30" as="geometry" />
        </mxCell>
        <mxCell id="0e8y201uo-q_4VDphdHA-41" value="" style="endArrow=none;html=1;rounded=0;exitX=0;exitY=0.25;exitDx=0;exitDy=0;entryX=1;entryY=0.25;entryDx=0;entryDy=0;" edge="1" parent="1" source="0e8y201uo-q_4VDphdHA-40" target="0e8y201uo-q_4VDphdHA-40">
          <mxGeometry width="50" height="50" relative="1" as="geometry">
            <mxPoint x="631" y="620" as="sourcePoint" />
            <mxPoint x="681" y="570" as="targetPoint" />
          </mxGeometry>
        </mxCell>
        <mxCell id="0e8y201uo-q_4VDphdHA-42" value="" style="endArrow=none;html=1;rounded=0;exitX=0;exitY=0.25;exitDx=0;exitDy=0;entryX=1;entryY=0.25;entryDx=0;entryDy=0;" edge="1" parent="1">
          <mxGeometry width="50" height="50" relative="1" as="geometry">
            <mxPoint x="601" y="594.88" as="sourcePoint" />
            <mxPoint x="611" y="594.88" as="targetPoint" />
          </mxGeometry>
        </mxCell>
        <mxCell id="0e8y201uo-q_4VDphdHA-43" value="" style="endArrow=none;html=1;rounded=0;exitX=0;exitY=0.25;exitDx=0;exitDy=0;entryX=1;entryY=0.25;entryDx=0;entryDy=0;" edge="1" parent="1">
          <mxGeometry width="50" height="50" relative="1" as="geometry">
            <mxPoint x="601" y="603" as="sourcePoint" />
            <mxPoint x="611" y="603" as="targetPoint" />
          </mxGeometry>
        </mxCell>
        <mxCell id="0e8y201uo-q_4VDphdHA-44" value="" style="rounded=0;whiteSpace=wrap;html=1;" vertex="1" parent="1">
          <mxGeometry x="611" y="580" width="10" height="30" as="geometry" />
        </mxCell>
        <mxCell id="0e8y201uo-q_4VDphdHA-45" value="" style="endArrow=none;html=1;rounded=0;exitX=0;exitY=0.25;exitDx=0;exitDy=0;entryX=1;entryY=0.25;entryDx=0;entryDy=0;" edge="1" parent="1" source="0e8y201uo-q_4VDphdHA-44" target="0e8y201uo-q_4VDphdHA-44">
          <mxGeometry width="50" height="50" relative="1" as="geometry">
            <mxPoint x="641" y="620" as="sourcePoint" />
            <mxPoint x="691" y="570" as="targetPoint" />
          </mxGeometry>
        </mxCell>
        <mxCell id="0e8y201uo-q_4VDphdHA-46" value="" style="endArrow=none;html=1;rounded=0;exitX=0;exitY=0.25;exitDx=0;exitDy=0;entryX=1;entryY=0.25;entryDx=0;entryDy=0;" edge="1" parent="1">
          <mxGeometry width="50" height="50" relative="1" as="geometry">
            <mxPoint x="611" y="594.88" as="sourcePoint" />
            <mxPoint x="621" y="594.88" as="targetPoint" />
          </mxGeometry>
        </mxCell>
        <mxCell id="0e8y201uo-q_4VDphdHA-47" value="" style="endArrow=none;html=1;rounded=0;exitX=0;exitY=0.25;exitDx=0;exitDy=0;entryX=1;entryY=0.25;entryDx=0;entryDy=0;" edge="1" parent="1">
          <mxGeometry width="50" height="50" relative="1" as="geometry">
            <mxPoint x="611" y="603" as="sourcePoint" />
            <mxPoint x="621" y="603" as="targetPoint" />
          </mxGeometry>
        </mxCell>
        <mxCell id="0e8y201uo-q_4VDphdHA-48" value="" style="rounded=0;whiteSpace=wrap;html=1;" vertex="1" parent="1">
          <mxGeometry x="621" y="580" width="10" height="30" as="geometry" />
        </mxCell>
        <mxCell id="0e8y201uo-q_4VDphdHA-49" value="" style="endArrow=none;html=1;rounded=0;exitX=0;exitY=0.25;exitDx=0;exitDy=0;entryX=1;entryY=0.25;entryDx=0;entryDy=0;" edge="1" parent="1" source="0e8y201uo-q_4VDphdHA-48" target="0e8y201uo-q_4VDphdHA-48">
          <mxGeometry width="50" height="50" relative="1" as="geometry">
            <mxPoint x="651" y="620" as="sourcePoint" />
            <mxPoint x="701" y="570" as="targetPoint" />
          </mxGeometry>
        </mxCell>
        <mxCell id="0e8y201uo-q_4VDphdHA-50" value="" style="endArrow=none;html=1;rounded=0;exitX=0;exitY=0.25;exitDx=0;exitDy=0;entryX=1;entryY=0.25;entryDx=0;entryDy=0;" edge="1" parent="1">
          <mxGeometry width="50" height="50" relative="1" as="geometry">
            <mxPoint x="621" y="594.88" as="sourcePoint" />
            <mxPoint x="631" y="594.88" as="targetPoint" />
          </mxGeometry>
        </mxCell>
        <mxCell id="0e8y201uo-q_4VDphdHA-51" value="" style="endArrow=none;html=1;rounded=0;exitX=0;exitY=0.25;exitDx=0;exitDy=0;entryX=1;entryY=0.25;entryDx=0;entryDy=0;" edge="1" parent="1">
          <mxGeometry width="50" height="50" relative="1" as="geometry">
            <mxPoint x="621" y="603" as="sourcePoint" />
            <mxPoint x="631" y="603" as="targetPoint" />
          </mxGeometry>
        </mxCell>
        <mxCell id="0e8y201uo-q_4VDphdHA-52" value="" style="rounded=0;whiteSpace=wrap;html=1;" vertex="1" parent="1">
          <mxGeometry x="591" y="610" width="10" height="30" as="geometry" />
        </mxCell>
        <mxCell id="0e8y201uo-q_4VDphdHA-53" value="" style="endArrow=none;html=1;rounded=0;exitX=0;exitY=0.25;exitDx=0;exitDy=0;entryX=1;entryY=0.25;entryDx=0;entryDy=0;" edge="1" parent="1" source="0e8y201uo-q_4VDphdHA-52" target="0e8y201uo-q_4VDphdHA-52">
          <mxGeometry width="50" height="50" relative="1" as="geometry">
            <mxPoint x="621" y="650" as="sourcePoint" />
            <mxPoint x="671" y="600" as="targetPoint" />
          </mxGeometry>
        </mxCell>
        <mxCell id="0e8y201uo-q_4VDphdHA-54" value="" style="endArrow=none;html=1;rounded=0;exitX=0;exitY=0.25;exitDx=0;exitDy=0;entryX=1;entryY=0.25;entryDx=0;entryDy=0;" edge="1" parent="1">
          <mxGeometry width="50" height="50" relative="1" as="geometry">
            <mxPoint x="591" y="624.88" as="sourcePoint" />
            <mxPoint x="601" y="624.88" as="targetPoint" />
          </mxGeometry>
        </mxCell>
        <mxCell id="0e8y201uo-q_4VDphdHA-55" value="" style="endArrow=none;html=1;rounded=0;exitX=0;exitY=0.25;exitDx=0;exitDy=0;entryX=1;entryY=0.25;entryDx=0;entryDy=0;" edge="1" parent="1">
          <mxGeometry width="50" height="50" relative="1" as="geometry">
            <mxPoint x="591" y="633" as="sourcePoint" />
            <mxPoint x="601" y="633" as="targetPoint" />
          </mxGeometry>
        </mxCell>
        <mxCell id="0e8y201uo-q_4VDphdHA-56" value="" style="rounded=0;whiteSpace=wrap;html=1;" vertex="1" parent="1">
          <mxGeometry x="601" y="610" width="10" height="30" as="geometry" />
        </mxCell>
        <mxCell id="0e8y201uo-q_4VDphdHA-57" value="" style="endArrow=none;html=1;rounded=0;exitX=0;exitY=0.25;exitDx=0;exitDy=0;entryX=1;entryY=0.25;entryDx=0;entryDy=0;" edge="1" parent="1" source="0e8y201uo-q_4VDphdHA-56" target="0e8y201uo-q_4VDphdHA-56">
          <mxGeometry width="50" height="50" relative="1" as="geometry">
            <mxPoint x="631" y="650" as="sourcePoint" />
            <mxPoint x="681" y="600" as="targetPoint" />
          </mxGeometry>
        </mxCell>
        <mxCell id="0e8y201uo-q_4VDphdHA-58" value="" style="endArrow=none;html=1;rounded=0;exitX=0;exitY=0.25;exitDx=0;exitDy=0;entryX=1;entryY=0.25;entryDx=0;entryDy=0;" edge="1" parent="1">
          <mxGeometry width="50" height="50" relative="1" as="geometry">
            <mxPoint x="601" y="624.88" as="sourcePoint" />
            <mxPoint x="611" y="624.88" as="targetPoint" />
          </mxGeometry>
        </mxCell>
        <mxCell id="0e8y201uo-q_4VDphdHA-59" value="" style="endArrow=none;html=1;rounded=0;exitX=0;exitY=0.25;exitDx=0;exitDy=0;entryX=1;entryY=0.25;entryDx=0;entryDy=0;" edge="1" parent="1">
          <mxGeometry width="50" height="50" relative="1" as="geometry">
            <mxPoint x="601" y="633" as="sourcePoint" />
            <mxPoint x="611" y="633" as="targetPoint" />
          </mxGeometry>
        </mxCell>
        <mxCell id="0e8y201uo-q_4VDphdHA-60" value="" style="rounded=0;whiteSpace=wrap;html=1;" vertex="1" parent="1">
          <mxGeometry x="611" y="610" width="10" height="30" as="geometry" />
        </mxCell>
        <mxCell id="0e8y201uo-q_4VDphdHA-61" value="" style="endArrow=none;html=1;rounded=0;exitX=0;exitY=0.25;exitDx=0;exitDy=0;entryX=1;entryY=0.25;entryDx=0;entryDy=0;" edge="1" parent="1" source="0e8y201uo-q_4VDphdHA-60" target="0e8y201uo-q_4VDphdHA-60">
          <mxGeometry width="50" height="50" relative="1" as="geometry">
            <mxPoint x="641" y="650" as="sourcePoint" />
            <mxPoint x="691" y="600" as="targetPoint" />
          </mxGeometry>
        </mxCell>
        <mxCell id="0e8y201uo-q_4VDphdHA-62" value="" style="endArrow=none;html=1;rounded=0;exitX=0;exitY=0.25;exitDx=0;exitDy=0;entryX=1;entryY=0.25;entryDx=0;entryDy=0;" edge="1" parent="1">
          <mxGeometry width="50" height="50" relative="1" as="geometry">
            <mxPoint x="611" y="624.88" as="sourcePoint" />
            <mxPoint x="621" y="624.88" as="targetPoint" />
          </mxGeometry>
        </mxCell>
        <mxCell id="0e8y201uo-q_4VDphdHA-63" value="" style="endArrow=none;html=1;rounded=0;exitX=0;exitY=0.25;exitDx=0;exitDy=0;entryX=1;entryY=0.25;entryDx=0;entryDy=0;" edge="1" parent="1">
          <mxGeometry width="50" height="50" relative="1" as="geometry">
            <mxPoint x="611" y="633" as="sourcePoint" />
            <mxPoint x="621" y="633" as="targetPoint" />
          </mxGeometry>
        </mxCell>
        <mxCell id="0e8y201uo-q_4VDphdHA-64" value="" style="rounded=0;whiteSpace=wrap;html=1;" vertex="1" parent="1">
          <mxGeometry x="621" y="610" width="10" height="30" as="geometry" />
        </mxCell>
        <mxCell id="0e8y201uo-q_4VDphdHA-65" value="" style="endArrow=none;html=1;rounded=0;exitX=0;exitY=0.25;exitDx=0;exitDy=0;entryX=1;entryY=0.25;entryDx=0;entryDy=0;" edge="1" parent="1" source="0e8y201uo-q_4VDphdHA-64" target="0e8y201uo-q_4VDphdHA-64">
          <mxGeometry width="50" height="50" relative="1" as="geometry">
            <mxPoint x="651" y="650" as="sourcePoint" />
            <mxPoint x="701" y="600" as="targetPoint" />
          </mxGeometry>
        </mxCell>
        <mxCell id="0e8y201uo-q_4VDphdHA-66" value="" style="endArrow=none;html=1;rounded=0;exitX=0;exitY=0.25;exitDx=0;exitDy=0;entryX=1;entryY=0.25;entryDx=0;entryDy=0;" edge="1" parent="1">
          <mxGeometry width="50" height="50" relative="1" as="geometry">
            <mxPoint x="621" y="624.88" as="sourcePoint" />
            <mxPoint x="631" y="624.88" as="targetPoint" />
          </mxGeometry>
        </mxCell>
        <mxCell id="0e8y201uo-q_4VDphdHA-67" value="" style="endArrow=none;html=1;rounded=0;exitX=0;exitY=0.25;exitDx=0;exitDy=0;entryX=1;entryY=0.25;entryDx=0;entryDy=0;" edge="1" parent="1">
          <mxGeometry width="50" height="50" relative="1" as="geometry">
            <mxPoint x="621" y="633" as="sourcePoint" />
            <mxPoint x="631" y="633" as="targetPoint" />
          </mxGeometry>
        </mxCell>
        <mxCell id="0e8y201uo-q_4VDphdHA-68" value="" style="rounded=0;whiteSpace=wrap;html=1;direction=south;" vertex="1" parent="1">
          <mxGeometry x="582" y="490" width="58" height="80" as="geometry" />
        </mxCell>
        <mxCell id="0e8y201uo-q_4VDphdHA-69" value="" style="rounded=0;whiteSpace=wrap;html=1;" vertex="1" parent="1">
          <mxGeometry x="591" y="500" width="10" height="30" as="geometry" />
        </mxCell>
        <mxCell id="0e8y201uo-q_4VDphdHA-70" value="" style="endArrow=none;html=1;rounded=0;exitX=0;exitY=0.25;exitDx=0;exitDy=0;entryX=1;entryY=0.25;entryDx=0;entryDy=0;" edge="1" parent="1" source="0e8y201uo-q_4VDphdHA-69" target="0e8y201uo-q_4VDphdHA-69">
          <mxGeometry width="50" height="50" relative="1" as="geometry">
            <mxPoint x="621" y="540" as="sourcePoint" />
            <mxPoint x="671" y="490" as="targetPoint" />
          </mxGeometry>
        </mxCell>
        <mxCell id="0e8y201uo-q_4VDphdHA-71" value="" style="endArrow=none;html=1;rounded=0;exitX=0;exitY=0.25;exitDx=0;exitDy=0;entryX=1;entryY=0.25;entryDx=0;entryDy=0;" edge="1" parent="1">
          <mxGeometry width="50" height="50" relative="1" as="geometry">
            <mxPoint x="591" y="514.88" as="sourcePoint" />
            <mxPoint x="601" y="514.88" as="targetPoint" />
          </mxGeometry>
        </mxCell>
        <mxCell id="0e8y201uo-q_4VDphdHA-72" value="" style="endArrow=none;html=1;rounded=0;exitX=0;exitY=0.25;exitDx=0;exitDy=0;entryX=1;entryY=0.25;entryDx=0;entryDy=0;" edge="1" parent="1">
          <mxGeometry width="50" height="50" relative="1" as="geometry">
            <mxPoint x="591" y="523" as="sourcePoint" />
            <mxPoint x="601" y="523" as="targetPoint" />
          </mxGeometry>
        </mxCell>
        <mxCell id="0e8y201uo-q_4VDphdHA-73" value="" style="rounded=0;whiteSpace=wrap;html=1;" vertex="1" parent="1">
          <mxGeometry x="601" y="500" width="10" height="30" as="geometry" />
        </mxCell>
        <mxCell id="0e8y201uo-q_4VDphdHA-74" value="" style="endArrow=none;html=1;rounded=0;exitX=0;exitY=0.25;exitDx=0;exitDy=0;entryX=1;entryY=0.25;entryDx=0;entryDy=0;" edge="1" parent="1" source="0e8y201uo-q_4VDphdHA-73" target="0e8y201uo-q_4VDphdHA-73">
          <mxGeometry width="50" height="50" relative="1" as="geometry">
            <mxPoint x="631" y="540" as="sourcePoint" />
            <mxPoint x="681" y="490" as="targetPoint" />
          </mxGeometry>
        </mxCell>
        <mxCell id="0e8y201uo-q_4VDphdHA-75" value="" style="endArrow=none;html=1;rounded=0;exitX=0;exitY=0.25;exitDx=0;exitDy=0;entryX=1;entryY=0.25;entryDx=0;entryDy=0;" edge="1" parent="1">
          <mxGeometry width="50" height="50" relative="1" as="geometry">
            <mxPoint x="601" y="514.88" as="sourcePoint" />
            <mxPoint x="611" y="514.88" as="targetPoint" />
          </mxGeometry>
        </mxCell>
        <mxCell id="0e8y201uo-q_4VDphdHA-76" value="" style="endArrow=none;html=1;rounded=0;exitX=0;exitY=0.25;exitDx=0;exitDy=0;entryX=1;entryY=0.25;entryDx=0;entryDy=0;" edge="1" parent="1">
          <mxGeometry width="50" height="50" relative="1" as="geometry">
            <mxPoint x="601" y="523" as="sourcePoint" />
            <mxPoint x="611" y="523" as="targetPoint" />
          </mxGeometry>
        </mxCell>
        <mxCell id="0e8y201uo-q_4VDphdHA-77" value="" style="rounded=0;whiteSpace=wrap;html=1;" vertex="1" parent="1">
          <mxGeometry x="611" y="500" width="10" height="30" as="geometry" />
        </mxCell>
        <mxCell id="0e8y201uo-q_4VDphdHA-78" value="" style="endArrow=none;html=1;rounded=0;exitX=0;exitY=0.25;exitDx=0;exitDy=0;entryX=1;entryY=0.25;entryDx=0;entryDy=0;" edge="1" parent="1" source="0e8y201uo-q_4VDphdHA-77" target="0e8y201uo-q_4VDphdHA-77">
          <mxGeometry width="50" height="50" relative="1" as="geometry">
            <mxPoint x="641" y="540" as="sourcePoint" />
            <mxPoint x="691" y="490" as="targetPoint" />
          </mxGeometry>
        </mxCell>
        <mxCell id="0e8y201uo-q_4VDphdHA-79" value="" style="endArrow=none;html=1;rounded=0;exitX=0;exitY=0.25;exitDx=0;exitDy=0;entryX=1;entryY=0.25;entryDx=0;entryDy=0;" edge="1" parent="1">
          <mxGeometry width="50" height="50" relative="1" as="geometry">
            <mxPoint x="611" y="514.88" as="sourcePoint" />
            <mxPoint x="621" y="514.88" as="targetPoint" />
          </mxGeometry>
        </mxCell>
        <mxCell id="0e8y201uo-q_4VDphdHA-80" value="" style="endArrow=none;html=1;rounded=0;exitX=0;exitY=0.25;exitDx=0;exitDy=0;entryX=1;entryY=0.25;entryDx=0;entryDy=0;" edge="1" parent="1">
          <mxGeometry width="50" height="50" relative="1" as="geometry">
            <mxPoint x="611" y="523" as="sourcePoint" />
            <mxPoint x="621" y="523" as="targetPoint" />
          </mxGeometry>
        </mxCell>
        <mxCell id="0e8y201uo-q_4VDphdHA-81" value="" style="rounded=0;whiteSpace=wrap;html=1;" vertex="1" parent="1">
          <mxGeometry x="621" y="500" width="10" height="30" as="geometry" />
        </mxCell>
        <mxCell id="0e8y201uo-q_4VDphdHA-82" value="" style="endArrow=none;html=1;rounded=0;exitX=0;exitY=0.25;exitDx=0;exitDy=0;entryX=1;entryY=0.25;entryDx=0;entryDy=0;" edge="1" parent="1" source="0e8y201uo-q_4VDphdHA-81" target="0e8y201uo-q_4VDphdHA-81">
          <mxGeometry width="50" height="50" relative="1" as="geometry">
            <mxPoint x="651" y="540" as="sourcePoint" />
            <mxPoint x="701" y="490" as="targetPoint" />
          </mxGeometry>
        </mxCell>
        <mxCell id="0e8y201uo-q_4VDphdHA-83" value="" style="endArrow=none;html=1;rounded=0;exitX=0;exitY=0.25;exitDx=0;exitDy=0;entryX=1;entryY=0.25;entryDx=0;entryDy=0;" edge="1" parent="1">
          <mxGeometry width="50" height="50" relative="1" as="geometry">
            <mxPoint x="621" y="514.88" as="sourcePoint" />
            <mxPoint x="631" y="514.88" as="targetPoint" />
          </mxGeometry>
        </mxCell>
        <mxCell id="0e8y201uo-q_4VDphdHA-84" value="" style="endArrow=none;html=1;rounded=0;exitX=0;exitY=0.25;exitDx=0;exitDy=0;entryX=1;entryY=0.25;entryDx=0;entryDy=0;" edge="1" parent="1">
          <mxGeometry width="50" height="50" relative="1" as="geometry">
            <mxPoint x="621" y="523" as="sourcePoint" />
            <mxPoint x="631" y="523" as="targetPoint" />
          </mxGeometry>
        </mxCell>
        <mxCell id="0e8y201uo-q_4VDphdHA-85" value="" style="rounded=0;whiteSpace=wrap;html=1;" vertex="1" parent="1">
          <mxGeometry x="591" y="530" width="10" height="30" as="geometry" />
        </mxCell>
        <mxCell id="0e8y201uo-q_4VDphdHA-86" value="" style="endArrow=none;html=1;rounded=0;exitX=0;exitY=0.25;exitDx=0;exitDy=0;entryX=1;entryY=0.25;entryDx=0;entryDy=0;" edge="1" parent="1" source="0e8y201uo-q_4VDphdHA-85" target="0e8y201uo-q_4VDphdHA-85">
          <mxGeometry width="50" height="50" relative="1" as="geometry">
            <mxPoint x="621" y="570" as="sourcePoint" />
            <mxPoint x="671" y="520" as="targetPoint" />
          </mxGeometry>
        </mxCell>
        <mxCell id="0e8y201uo-q_4VDphdHA-87" value="" style="endArrow=none;html=1;rounded=0;exitX=0;exitY=0.25;exitDx=0;exitDy=0;entryX=1;entryY=0.25;entryDx=0;entryDy=0;" edge="1" parent="1">
          <mxGeometry width="50" height="50" relative="1" as="geometry">
            <mxPoint x="591" y="544.88" as="sourcePoint" />
            <mxPoint x="601" y="544.88" as="targetPoint" />
          </mxGeometry>
        </mxCell>
        <mxCell id="0e8y201uo-q_4VDphdHA-88" value="" style="endArrow=none;html=1;rounded=0;exitX=0;exitY=0.25;exitDx=0;exitDy=0;entryX=1;entryY=0.25;entryDx=0;entryDy=0;" edge="1" parent="1">
          <mxGeometry width="50" height="50" relative="1" as="geometry">
            <mxPoint x="591" y="553" as="sourcePoint" />
            <mxPoint x="601" y="553" as="targetPoint" />
          </mxGeometry>
        </mxCell>
        <mxCell id="0e8y201uo-q_4VDphdHA-89" value="" style="rounded=0;whiteSpace=wrap;html=1;" vertex="1" parent="1">
          <mxGeometry x="601" y="530" width="10" height="30" as="geometry" />
        </mxCell>
        <mxCell id="0e8y201uo-q_4VDphdHA-90" value="" style="endArrow=none;html=1;rounded=0;exitX=0;exitY=0.25;exitDx=0;exitDy=0;entryX=1;entryY=0.25;entryDx=0;entryDy=0;" edge="1" parent="1" source="0e8y201uo-q_4VDphdHA-89" target="0e8y201uo-q_4VDphdHA-89">
          <mxGeometry width="50" height="50" relative="1" as="geometry">
            <mxPoint x="631" y="570" as="sourcePoint" />
            <mxPoint x="681" y="520" as="targetPoint" />
          </mxGeometry>
        </mxCell>
        <mxCell id="0e8y201uo-q_4VDphdHA-91" value="" style="endArrow=none;html=1;rounded=0;exitX=0;exitY=0.25;exitDx=0;exitDy=0;entryX=1;entryY=0.25;entryDx=0;entryDy=0;" edge="1" parent="1">
          <mxGeometry width="50" height="50" relative="1" as="geometry">
            <mxPoint x="601" y="544.88" as="sourcePoint" />
            <mxPoint x="611" y="544.88" as="targetPoint" />
          </mxGeometry>
        </mxCell>
        <mxCell id="0e8y201uo-q_4VDphdHA-92" value="" style="endArrow=none;html=1;rounded=0;exitX=0;exitY=0.25;exitDx=0;exitDy=0;entryX=1;entryY=0.25;entryDx=0;entryDy=0;" edge="1" parent="1">
          <mxGeometry width="50" height="50" relative="1" as="geometry">
            <mxPoint x="601" y="553" as="sourcePoint" />
            <mxPoint x="611" y="553" as="targetPoint" />
          </mxGeometry>
        </mxCell>
        <mxCell id="0e8y201uo-q_4VDphdHA-93" value="" style="rounded=0;whiteSpace=wrap;html=1;" vertex="1" parent="1">
          <mxGeometry x="611" y="530" width="10" height="30" as="geometry" />
        </mxCell>
        <mxCell id="0e8y201uo-q_4VDphdHA-94" value="" style="endArrow=none;html=1;rounded=0;exitX=0;exitY=0.25;exitDx=0;exitDy=0;entryX=1;entryY=0.25;entryDx=0;entryDy=0;" edge="1" parent="1" source="0e8y201uo-q_4VDphdHA-93" target="0e8y201uo-q_4VDphdHA-93">
          <mxGeometry width="50" height="50" relative="1" as="geometry">
            <mxPoint x="641" y="570" as="sourcePoint" />
            <mxPoint x="691" y="520" as="targetPoint" />
          </mxGeometry>
        </mxCell>
        <mxCell id="0e8y201uo-q_4VDphdHA-95" value="" style="endArrow=none;html=1;rounded=0;exitX=0;exitY=0.25;exitDx=0;exitDy=0;entryX=1;entryY=0.25;entryDx=0;entryDy=0;" edge="1" parent="1">
          <mxGeometry width="50" height="50" relative="1" as="geometry">
            <mxPoint x="611" y="544.88" as="sourcePoint" />
            <mxPoint x="621" y="544.88" as="targetPoint" />
          </mxGeometry>
        </mxCell>
        <mxCell id="0e8y201uo-q_4VDphdHA-96" value="" style="endArrow=none;html=1;rounded=0;exitX=0;exitY=0.25;exitDx=0;exitDy=0;entryX=1;entryY=0.25;entryDx=0;entryDy=0;" edge="1" parent="1">
          <mxGeometry width="50" height="50" relative="1" as="geometry">
            <mxPoint x="611" y="553" as="sourcePoint" />
            <mxPoint x="621" y="553" as="targetPoint" />
          </mxGeometry>
        </mxCell>
        <mxCell id="0e8y201uo-q_4VDphdHA-97" value="" style="rounded=0;whiteSpace=wrap;html=1;" vertex="1" parent="1">
          <mxGeometry x="621" y="530" width="10" height="30" as="geometry" />
        </mxCell>
        <mxCell id="0e8y201uo-q_4VDphdHA-98" value="" style="endArrow=none;html=1;rounded=0;exitX=0;exitY=0.25;exitDx=0;exitDy=0;entryX=1;entryY=0.25;entryDx=0;entryDy=0;" edge="1" parent="1" source="0e8y201uo-q_4VDphdHA-97" target="0e8y201uo-q_4VDphdHA-97">
          <mxGeometry width="50" height="50" relative="1" as="geometry">
            <mxPoint x="651" y="570" as="sourcePoint" />
            <mxPoint x="701" y="520" as="targetPoint" />
          </mxGeometry>
        </mxCell>
        <mxCell id="0e8y201uo-q_4VDphdHA-99" value="" style="endArrow=none;html=1;rounded=0;exitX=0;exitY=0.25;exitDx=0;exitDy=0;entryX=1;entryY=0.25;entryDx=0;entryDy=0;" edge="1" parent="1">
          <mxGeometry width="50" height="50" relative="1" as="geometry">
            <mxPoint x="621" y="544.88" as="sourcePoint" />
            <mxPoint x="631" y="544.88" as="targetPoint" />
          </mxGeometry>
        </mxCell>
        <mxCell id="0e8y201uo-q_4VDphdHA-100" value="" style="endArrow=none;html=1;rounded=0;exitX=0;exitY=0.25;exitDx=0;exitDy=0;entryX=1;entryY=0.25;entryDx=0;entryDy=0;" edge="1" parent="1">
          <mxGeometry width="50" height="50" relative="1" as="geometry">
            <mxPoint x="621" y="553" as="sourcePoint" />
            <mxPoint x="631" y="553" as="targetPoint" />
          </mxGeometry>
        </mxCell>
        <mxCell id="0e8y201uo-q_4VDphdHA-101" value="" style="rounded=0;whiteSpace=wrap;html=1;direction=south;" vertex="1" parent="1">
          <mxGeometry x="582" y="410" width="58" height="80" as="geometry" />
        </mxCell>
        <mxCell id="0e8y201uo-q_4VDphdHA-102" value="" style="rounded=0;whiteSpace=wrap;html=1;" vertex="1" parent="1">
          <mxGeometry x="591" y="420" width="10" height="30" as="geometry" />
        </mxCell>
        <mxCell id="0e8y201uo-q_4VDphdHA-103" value="" style="endArrow=none;html=1;rounded=0;exitX=0;exitY=0.25;exitDx=0;exitDy=0;entryX=1;entryY=0.25;entryDx=0;entryDy=0;" edge="1" parent="1" source="0e8y201uo-q_4VDphdHA-102" target="0e8y201uo-q_4VDphdHA-102">
          <mxGeometry width="50" height="50" relative="1" as="geometry">
            <mxPoint x="621" y="460" as="sourcePoint" />
            <mxPoint x="671" y="410" as="targetPoint" />
          </mxGeometry>
        </mxCell>
        <mxCell id="0e8y201uo-q_4VDphdHA-104" value="" style="endArrow=none;html=1;rounded=0;exitX=0;exitY=0.25;exitDx=0;exitDy=0;entryX=1;entryY=0.25;entryDx=0;entryDy=0;" edge="1" parent="1">
          <mxGeometry width="50" height="50" relative="1" as="geometry">
            <mxPoint x="591" y="434.88" as="sourcePoint" />
            <mxPoint x="601" y="434.88" as="targetPoint" />
          </mxGeometry>
        </mxCell>
        <mxCell id="0e8y201uo-q_4VDphdHA-105" value="" style="endArrow=none;html=1;rounded=0;exitX=0;exitY=0.25;exitDx=0;exitDy=0;entryX=1;entryY=0.25;entryDx=0;entryDy=0;" edge="1" parent="1">
          <mxGeometry width="50" height="50" relative="1" as="geometry">
            <mxPoint x="591" y="443" as="sourcePoint" />
            <mxPoint x="601" y="443" as="targetPoint" />
          </mxGeometry>
        </mxCell>
        <mxCell id="0e8y201uo-q_4VDphdHA-106" value="" style="rounded=0;whiteSpace=wrap;html=1;" vertex="1" parent="1">
          <mxGeometry x="601" y="420" width="10" height="30" as="geometry" />
        </mxCell>
        <mxCell id="0e8y201uo-q_4VDphdHA-107" value="" style="endArrow=none;html=1;rounded=0;exitX=0;exitY=0.25;exitDx=0;exitDy=0;entryX=1;entryY=0.25;entryDx=0;entryDy=0;" edge="1" parent="1" source="0e8y201uo-q_4VDphdHA-106" target="0e8y201uo-q_4VDphdHA-106">
          <mxGeometry width="50" height="50" relative="1" as="geometry">
            <mxPoint x="631" y="460" as="sourcePoint" />
            <mxPoint x="681" y="410" as="targetPoint" />
          </mxGeometry>
        </mxCell>
        <mxCell id="0e8y201uo-q_4VDphdHA-108" value="" style="endArrow=none;html=1;rounded=0;exitX=0;exitY=0.25;exitDx=0;exitDy=0;entryX=1;entryY=0.25;entryDx=0;entryDy=0;" edge="1" parent="1">
          <mxGeometry width="50" height="50" relative="1" as="geometry">
            <mxPoint x="601" y="434.88" as="sourcePoint" />
            <mxPoint x="611" y="434.88" as="targetPoint" />
          </mxGeometry>
        </mxCell>
        <mxCell id="0e8y201uo-q_4VDphdHA-109" value="" style="endArrow=none;html=1;rounded=0;exitX=0;exitY=0.25;exitDx=0;exitDy=0;entryX=1;entryY=0.25;entryDx=0;entryDy=0;" edge="1" parent="1">
          <mxGeometry width="50" height="50" relative="1" as="geometry">
            <mxPoint x="601" y="443" as="sourcePoint" />
            <mxPoint x="611" y="443" as="targetPoint" />
          </mxGeometry>
        </mxCell>
        <mxCell id="0e8y201uo-q_4VDphdHA-110" value="" style="rounded=0;whiteSpace=wrap;html=1;" vertex="1" parent="1">
          <mxGeometry x="611" y="420" width="10" height="30" as="geometry" />
        </mxCell>
        <mxCell id="0e8y201uo-q_4VDphdHA-111" value="" style="endArrow=none;html=1;rounded=0;exitX=0;exitY=0.25;exitDx=0;exitDy=0;entryX=1;entryY=0.25;entryDx=0;entryDy=0;" edge="1" parent="1" source="0e8y201uo-q_4VDphdHA-110" target="0e8y201uo-q_4VDphdHA-110">
          <mxGeometry width="50" height="50" relative="1" as="geometry">
            <mxPoint x="641" y="460" as="sourcePoint" />
            <mxPoint x="691" y="410" as="targetPoint" />
          </mxGeometry>
        </mxCell>
        <mxCell id="0e8y201uo-q_4VDphdHA-112" value="" style="endArrow=none;html=1;rounded=0;exitX=0;exitY=0.25;exitDx=0;exitDy=0;entryX=1;entryY=0.25;entryDx=0;entryDy=0;" edge="1" parent="1">
          <mxGeometry width="50" height="50" relative="1" as="geometry">
            <mxPoint x="611" y="434.88" as="sourcePoint" />
            <mxPoint x="621" y="434.88" as="targetPoint" />
          </mxGeometry>
        </mxCell>
        <mxCell id="0e8y201uo-q_4VDphdHA-113" value="" style="endArrow=none;html=1;rounded=0;exitX=0;exitY=0.25;exitDx=0;exitDy=0;entryX=1;entryY=0.25;entryDx=0;entryDy=0;" edge="1" parent="1">
          <mxGeometry width="50" height="50" relative="1" as="geometry">
            <mxPoint x="611" y="443" as="sourcePoint" />
            <mxPoint x="621" y="443" as="targetPoint" />
          </mxGeometry>
        </mxCell>
        <mxCell id="0e8y201uo-q_4VDphdHA-114" value="" style="rounded=0;whiteSpace=wrap;html=1;" vertex="1" parent="1">
          <mxGeometry x="621" y="420" width="10" height="30" as="geometry" />
        </mxCell>
        <mxCell id="0e8y201uo-q_4VDphdHA-115" value="" style="endArrow=none;html=1;rounded=0;exitX=0;exitY=0.25;exitDx=0;exitDy=0;entryX=1;entryY=0.25;entryDx=0;entryDy=0;" edge="1" parent="1" source="0e8y201uo-q_4VDphdHA-114" target="0e8y201uo-q_4VDphdHA-114">
          <mxGeometry width="50" height="50" relative="1" as="geometry">
            <mxPoint x="651" y="460" as="sourcePoint" />
            <mxPoint x="701" y="410" as="targetPoint" />
          </mxGeometry>
        </mxCell>
        <mxCell id="0e8y201uo-q_4VDphdHA-116" value="" style="endArrow=none;html=1;rounded=0;exitX=0;exitY=0.25;exitDx=0;exitDy=0;entryX=1;entryY=0.25;entryDx=0;entryDy=0;" edge="1" parent="1">
          <mxGeometry width="50" height="50" relative="1" as="geometry">
            <mxPoint x="621" y="434.88" as="sourcePoint" />
            <mxPoint x="631" y="434.88" as="targetPoint" />
          </mxGeometry>
        </mxCell>
        <mxCell id="0e8y201uo-q_4VDphdHA-117" value="" style="endArrow=none;html=1;rounded=0;exitX=0;exitY=0.25;exitDx=0;exitDy=0;entryX=1;entryY=0.25;entryDx=0;entryDy=0;" edge="1" parent="1">
          <mxGeometry width="50" height="50" relative="1" as="geometry">
            <mxPoint x="621" y="443" as="sourcePoint" />
            <mxPoint x="631" y="443" as="targetPoint" />
          </mxGeometry>
        </mxCell>
        <mxCell id="0e8y201uo-q_4VDphdHA-118" value="" style="rounded=0;whiteSpace=wrap;html=1;" vertex="1" parent="1">
          <mxGeometry x="591" y="450" width="10" height="30" as="geometry" />
        </mxCell>
        <mxCell id="0e8y201uo-q_4VDphdHA-119" value="" style="endArrow=none;html=1;rounded=0;exitX=0;exitY=0.25;exitDx=0;exitDy=0;entryX=1;entryY=0.25;entryDx=0;entryDy=0;" edge="1" parent="1" source="0e8y201uo-q_4VDphdHA-118" target="0e8y201uo-q_4VDphdHA-118">
          <mxGeometry width="50" height="50" relative="1" as="geometry">
            <mxPoint x="621" y="490" as="sourcePoint" />
            <mxPoint x="671" y="440" as="targetPoint" />
          </mxGeometry>
        </mxCell>
        <mxCell id="0e8y201uo-q_4VDphdHA-120" value="" style="endArrow=none;html=1;rounded=0;exitX=0;exitY=0.25;exitDx=0;exitDy=0;entryX=1;entryY=0.25;entryDx=0;entryDy=0;" edge="1" parent="1">
          <mxGeometry width="50" height="50" relative="1" as="geometry">
            <mxPoint x="591" y="464.88" as="sourcePoint" />
            <mxPoint x="601" y="464.88" as="targetPoint" />
          </mxGeometry>
        </mxCell>
        <mxCell id="0e8y201uo-q_4VDphdHA-121" value="" style="endArrow=none;html=1;rounded=0;exitX=0;exitY=0.25;exitDx=0;exitDy=0;entryX=1;entryY=0.25;entryDx=0;entryDy=0;" edge="1" parent="1">
          <mxGeometry width="50" height="50" relative="1" as="geometry">
            <mxPoint x="591" y="473" as="sourcePoint" />
            <mxPoint x="601" y="473" as="targetPoint" />
          </mxGeometry>
        </mxCell>
        <mxCell id="0e8y201uo-q_4VDphdHA-122" value="" style="rounded=0;whiteSpace=wrap;html=1;" vertex="1" parent="1">
          <mxGeometry x="601" y="450" width="10" height="30" as="geometry" />
        </mxCell>
        <mxCell id="0e8y201uo-q_4VDphdHA-123" value="" style="endArrow=none;html=1;rounded=0;exitX=0;exitY=0.25;exitDx=0;exitDy=0;entryX=1;entryY=0.25;entryDx=0;entryDy=0;" edge="1" parent="1" source="0e8y201uo-q_4VDphdHA-122" target="0e8y201uo-q_4VDphdHA-122">
          <mxGeometry width="50" height="50" relative="1" as="geometry">
            <mxPoint x="631" y="490" as="sourcePoint" />
            <mxPoint x="681" y="440" as="targetPoint" />
          </mxGeometry>
        </mxCell>
        <mxCell id="0e8y201uo-q_4VDphdHA-124" value="" style="endArrow=none;html=1;rounded=0;exitX=0;exitY=0.25;exitDx=0;exitDy=0;entryX=1;entryY=0.25;entryDx=0;entryDy=0;" edge="1" parent="1">
          <mxGeometry width="50" height="50" relative="1" as="geometry">
            <mxPoint x="601" y="464.88" as="sourcePoint" />
            <mxPoint x="611" y="464.88" as="targetPoint" />
          </mxGeometry>
        </mxCell>
        <mxCell id="0e8y201uo-q_4VDphdHA-125" value="" style="endArrow=none;html=1;rounded=0;exitX=0;exitY=0.25;exitDx=0;exitDy=0;entryX=1;entryY=0.25;entryDx=0;entryDy=0;" edge="1" parent="1">
          <mxGeometry width="50" height="50" relative="1" as="geometry">
            <mxPoint x="601" y="473" as="sourcePoint" />
            <mxPoint x="611" y="473" as="targetPoint" />
          </mxGeometry>
        </mxCell>
        <mxCell id="0e8y201uo-q_4VDphdHA-126" value="" style="rounded=0;whiteSpace=wrap;html=1;" vertex="1" parent="1">
          <mxGeometry x="611" y="450" width="10" height="30" as="geometry" />
        </mxCell>
        <mxCell id="0e8y201uo-q_4VDphdHA-127" value="" style="endArrow=none;html=1;rounded=0;exitX=0;exitY=0.25;exitDx=0;exitDy=0;entryX=1;entryY=0.25;entryDx=0;entryDy=0;" edge="1" parent="1" source="0e8y201uo-q_4VDphdHA-126" target="0e8y201uo-q_4VDphdHA-126">
          <mxGeometry width="50" height="50" relative="1" as="geometry">
            <mxPoint x="641" y="490" as="sourcePoint" />
            <mxPoint x="691" y="440" as="targetPoint" />
          </mxGeometry>
        </mxCell>
        <mxCell id="0e8y201uo-q_4VDphdHA-128" value="" style="endArrow=none;html=1;rounded=0;exitX=0;exitY=0.25;exitDx=0;exitDy=0;entryX=1;entryY=0.25;entryDx=0;entryDy=0;" edge="1" parent="1">
          <mxGeometry width="50" height="50" relative="1" as="geometry">
            <mxPoint x="611" y="464.88" as="sourcePoint" />
            <mxPoint x="621" y="464.88" as="targetPoint" />
          </mxGeometry>
        </mxCell>
        <mxCell id="0e8y201uo-q_4VDphdHA-129" value="" style="endArrow=none;html=1;rounded=0;exitX=0;exitY=0.25;exitDx=0;exitDy=0;entryX=1;entryY=0.25;entryDx=0;entryDy=0;" edge="1" parent="1">
          <mxGeometry width="50" height="50" relative="1" as="geometry">
            <mxPoint x="611" y="473" as="sourcePoint" />
            <mxPoint x="621" y="473" as="targetPoint" />
          </mxGeometry>
        </mxCell>
        <mxCell id="0e8y201uo-q_4VDphdHA-130" value="" style="rounded=0;whiteSpace=wrap;html=1;" vertex="1" parent="1">
          <mxGeometry x="621" y="450" width="10" height="30" as="geometry" />
        </mxCell>
        <mxCell id="0e8y201uo-q_4VDphdHA-131" value="" style="endArrow=none;html=1;rounded=0;exitX=0;exitY=0.25;exitDx=0;exitDy=0;entryX=1;entryY=0.25;entryDx=0;entryDy=0;" edge="1" parent="1" source="0e8y201uo-q_4VDphdHA-130" target="0e8y201uo-q_4VDphdHA-130">
          <mxGeometry width="50" height="50" relative="1" as="geometry">
            <mxPoint x="651" y="490" as="sourcePoint" />
            <mxPoint x="701" y="440" as="targetPoint" />
          </mxGeometry>
        </mxCell>
        <mxCell id="0e8y201uo-q_4VDphdHA-132" value="" style="endArrow=none;html=1;rounded=0;exitX=0;exitY=0.25;exitDx=0;exitDy=0;entryX=1;entryY=0.25;entryDx=0;entryDy=0;" edge="1" parent="1">
          <mxGeometry width="50" height="50" relative="1" as="geometry">
            <mxPoint x="621" y="464.88" as="sourcePoint" />
            <mxPoint x="631" y="464.88" as="targetPoint" />
          </mxGeometry>
        </mxCell>
        <mxCell id="0e8y201uo-q_4VDphdHA-133" value="" style="endArrow=none;html=1;rounded=0;exitX=0;exitY=0.25;exitDx=0;exitDy=0;entryX=1;entryY=0.25;entryDx=0;entryDy=0;" edge="1" parent="1">
          <mxGeometry width="50" height="50" relative="1" as="geometry">
            <mxPoint x="621" y="473" as="sourcePoint" />
            <mxPoint x="631" y="473" as="targetPoint" />
          </mxGeometry>
        </mxCell>
        <mxCell id="0e8y201uo-q_4VDphdHA-238" value="" style="group" vertex="1" connectable="0" parent="1">
          <mxGeometry x="250" y="100" width="210" height="50" as="geometry" />
        </mxCell>
        <mxCell id="0e8y201uo-q_4VDphdHA-239" value="" style="strokeWidth=2;shape=mxgraph.flowchart.start_1;whiteSpace=wrap;html=1;points=[];textOpacity=0;opacity=40;strokeColor=none;fillColor=#9999FF;" vertex="1" parent="0e8y201uo-q_4VDphdHA-238">
          <mxGeometry width="210" height="50" as="geometry" />
        </mxCell>
        <mxCell id="0e8y201uo-q_4VDphdHA-240" value="" style="fillColorStyles=neutralFill;neutralFill=#9DA6A8;shape=mxgraph.networks2.icon;aspect=fixed;fillColor=#EDEDED;strokeColor=#000000;gradientColor=#5B6163;network2IconShadow=1;network2bgFillColor=none;network2Icon=mxgraph.networks2.router;network2IconXOffset=0.0001;network2IconYOffset=-0.1142;network2IconW=1;network2IconH=0.5485;" vertex="1" parent="0e8y201uo-q_4VDphdHA-238">
          <mxGeometry x="85.09200000000001" y="14.166666666666668" width="33.18" height="18.2" as="geometry" />
        </mxCell>
        <mxCell id="0e8y201uo-q_4VDphdHA-241" value="" style="group" vertex="1" connectable="0" parent="1">
          <mxGeometry x="420" y="100" width="230" height="50" as="geometry" />
        </mxCell>
        <mxCell id="0e8y201uo-q_4VDphdHA-242" value="" style="strokeWidth=2;shape=mxgraph.flowchart.start_1;whiteSpace=wrap;html=1;points=[];textOpacity=0;opacity=40;strokeColor=none;fillColor=#f8cecc;" vertex="1" parent="0e8y201uo-q_4VDphdHA-241">
          <mxGeometry width="230" height="50" as="geometry" />
        </mxCell>
        <mxCell id="0e8y201uo-q_4VDphdHA-243" value="" style="fillColorStyles=neutralFill;neutralFill=#9DA6A8;shape=mxgraph.networks2.icon;aspect=fixed;fillColor=#EDEDED;strokeColor=#000000;gradientColor=#5B6163;network2IconShadow=1;network2bgFillColor=none;network2Icon=mxgraph.networks2.router;network2IconXOffset=0.0001;network2IconYOffset=-0.1142;network2IconW=1;network2IconH=0.5485;" vertex="1" parent="0e8y201uo-q_4VDphdHA-241">
          <mxGeometry x="93.19600000000001" y="14.166666666666668" width="36.34" height="19.933333333333337" as="geometry" />
        </mxCell>
        <mxCell id="0e8y201uo-q_4VDphdHA-244" value="" style="group;rotation=-91;" vertex="1" connectable="0" parent="1">
          <mxGeometry x="487" y="240" width="250" height="60" as="geometry" />
        </mxCell>
        <mxCell id="0e8y201uo-q_4VDphdHA-245" value="" style="fillColorStyles=neutralFill;neutralFill=#9DA6A8;shape=mxgraph.networks2.icon;aspect=fixed;fillColor=#EDEDED;strokeColor=#000000;gradientColor=#5B6163;network2IconShadow=1;network2bgFillColor=none;network2Icon=mxgraph.networks2.router;network2IconXOffset=0.0001;network2IconYOffset=-0.1142;network2IconW=1;network2IconH=0.5485;rotation=-91;" vertex="1" parent="0e8y201uo-q_4VDphdHA-244">
          <mxGeometry x="102" y="23" width="36.46" height="20" as="geometry" />
        </mxCell>
        <mxCell id="0e8y201uo-q_4VDphdHA-246" value="" style="strokeWidth=2;shape=mxgraph.flowchart.start_1;whiteSpace=wrap;html=1;points=[];textOpacity=0;opacity=40;strokeColor=none;fillColor=#C3BBFF;rotation=-91;direction=west;" vertex="1" parent="0e8y201uo-q_4VDphdHA-244">
          <mxGeometry width="250" height="60" as="geometry" />
        </mxCell>
        <mxCell id="0e8y201uo-q_4VDphdHA-247" value="" style="group;rotation=-91;" vertex="1" connectable="0" parent="1">
          <mxGeometry x="487" y="500" width="250" height="60" as="geometry" />
        </mxCell>
        <mxCell id="0e8y201uo-q_4VDphdHA-248" value="" style="fillColorStyles=neutralFill;neutralFill=#9DA6A8;shape=mxgraph.networks2.icon;aspect=fixed;fillColor=#EDEDED;strokeColor=#000000;gradientColor=#5B6163;network2IconShadow=1;network2bgFillColor=none;network2Icon=mxgraph.networks2.router;network2IconXOffset=0.0001;network2IconYOffset=-0.1142;network2IconW=1;network2IconH=0.5485;rotation=-91;" vertex="1" parent="0e8y201uo-q_4VDphdHA-247">
          <mxGeometry x="102" y="23" width="36.46" height="20" as="geometry" />
        </mxCell>
        <mxCell id="0e8y201uo-q_4VDphdHA-249" value="" style="strokeWidth=2;shape=mxgraph.flowchart.start_1;whiteSpace=wrap;html=1;points=[];textOpacity=0;opacity=40;strokeColor=none;fillColor=light-dark(#99ff00, #48417b);rotation=-91;direction=west;" vertex="1" parent="0e8y201uo-q_4VDphdHA-247">
          <mxGeometry width="250" height="60" as="geometry" />
        </mxCell>
        <mxCell id="0e8y201uo-q_4VDphdHA-250" value="" style="group" vertex="1" connectable="0" parent="1">
          <mxGeometry x="280" y="650" width="230" height="50" as="geometry" />
        </mxCell>
        <mxCell id="0e8y201uo-q_4VDphdHA-251" value="" style="strokeWidth=2;shape=mxgraph.flowchart.start_1;whiteSpace=wrap;html=1;points=[];textOpacity=0;opacity=40;strokeColor=none;fillColor=#FFCCE6;" vertex="1" parent="0e8y201uo-q_4VDphdHA-250">
          <mxGeometry width="230" height="50" as="geometry" />
        </mxCell>
        <mxCell id="0e8y201uo-q_4VDphdHA-252" value="" style="fillColorStyles=neutralFill;neutralFill=#9DA6A8;shape=mxgraph.networks2.icon;aspect=fixed;fillColor=#EDEDED;strokeColor=#000000;gradientColor=#5B6163;network2IconShadow=1;network2bgFillColor=none;network2Icon=mxgraph.networks2.router;network2IconXOffset=0.0001;network2IconYOffset=-0.1142;network2IconW=1;network2IconH=0.5485;" vertex="1" parent="0e8y201uo-q_4VDphdHA-250">
          <mxGeometry x="93.19600000000001" y="14.166666666666668" width="36.34" height="19.933333333333337" as="geometry" />
        </mxCell>
      </root>
    </mxGraphModel>
  </diagram>
</mxfile>
